<?xml version="1.0" encoding="UTF-8" standalone="no"?>
<!DOCTYPE svg PUBLIC "-//W3C//DTD SVG 1.1//EN"
 "http://www.w3.org/Graphics/SVG/1.1/DTD/svg11.dtd">
<!-- Generated by graphviz version 2.47.0 (20210316.0004)
 -->
<!-- Title: dependencies Pages: 1 -->
<svg width="504pt" height="211pt"
 viewBox="0.00 0.00 504.00 211.00" xmlns="http://www.w3.org/2000/svg" xmlns:xlink="http://www.w3.org/1999/xlink">
<g id="graph0" class="graph" transform="scale(1 1) rotate(0) translate(4 207)">
<title>dependencies</title>
<polygon fill="white" stroke="transparent" points="-4,4 -4,-207 500,-207 500,4 -4,4"/>
<text text-anchor="start" x="227.01" y="-42.4" font-family="Times-12" font-weight="bold" font-size="14.00">Legend</text>
<polygon fill="#ffffb3" stroke="transparent" points="14,-10 14,-30 34,-30 34,-10 14,-10"/>
<text text-anchor="start" x="37.63" y="-15.4" font-family="Times-12" font-size="14.00"> &#160;Declarations</text>
<polygon fill="#8dd3c7" stroke="transparent" points="127,-10 127,-30 147,-30 147,-10 127,-10"/>
<text text-anchor="start" x="150.73" y="-15.4" font-family="Times-12" font-size="14.00"> &#160;Module</text>
<polygon fill="#80b1d3" stroke="transparent" points="213,-10 213,-30 233,-30 233,-10 213,-10"/>
<text text-anchor="start" x="236.78" y="-15.4" font-family="Times-12" font-size="14.00"> &#160;Bootstrap</text>
<polygon fill="#fdb462" stroke="transparent" points="310,-10 310,-30 330,-30 330,-10 310,-10"/>
<text text-anchor="start" x="333.67" y="-15.4" font-family="Times-12" font-size="14.00"> &#160;Providers</text>
<polygon fill="#fb8072" stroke="transparent" points="406,-10 406,-30 426,-30 426,-10 406,-10"/>
<text text-anchor="start" x="429.73" y="-15.4" font-family="Times-12" font-size="14.00"> &#160;Exports</text>
<g id="clust1" class="cluster">
<title>cluster_AppModule</title>
<polygon fill="none" stroke="black" stroke-dasharray="1,5" points="109,-70 109,-195 387,-195 387,-70 109,-70"/>
</g>
<g id="clust3" class="cluster">
<title>cluster_AppModule_imports</title>
<polygon fill="none" stroke="black" points="117,-78 117,-130 379,-130 379,-78 117,-78"/>
</g>
<!-- CommonModule -->
<g id="node1" class="node">
<title>CommonModule</title>
<polygon fill="#8dd3c7" stroke="black" points="370.67,-122 367.67,-126 346.67,-126 343.67,-122 259.33,-122 259.33,-86 370.67,-86 370.67,-122"/>
<text text-anchor="middle" x="315" y="-99.8" font-family="Times,serif" font-size="14.00">CommonModule</text>
</g>
<!-- AppModule -->
<g id="node3" class="node">
<title>AppModule</title>
<polygon fill="#8dd3c7" stroke="black" points="290.66,-187 287.66,-191 266.66,-191 263.66,-187 207.34,-187 207.34,-151 290.66,-151 290.66,-187"/>
<text text-anchor="middle" x="249" y="-164.8" font-family="Times,serif" font-size="14.00">AppModule</text>
</g>
<!-- CommonModule&#45;&gt;AppModule -->
<g id="edge1" class="edge">
<title>CommonModule&#45;&gt;AppModule</title>
<path fill="none" stroke="black" d="M275,-122.11C275,-122.11 275,-140.99 275,-140.99"/>
<polygon fill="black" stroke="black" points="271.5,-140.99 275,-150.99 278.5,-140.99 271.5,-140.99"/>
</g>
<!-- EmployeeModule -->
<g id="node2" class="node">
<title>EmployeeModule</title>
<polygon fill="#8dd3c7" stroke="black" points="241.31,-122 238.31,-126 217.31,-126 214.31,-122 124.69,-122 124.69,-86 241.31,-86 241.31,-122"/>
<text text-anchor="middle" x="183" y="-99.8" font-family="Times,serif" font-size="14.00">EmployeeModule</text>
</g>
<!-- EmployeeModule&#45;&gt;AppModule -->
<g id="edge2" class="edge">
<title>EmployeeModule&#45;&gt;AppModule</title>
<path fill="none" stroke="black" d="M224.16,-122.11C224.16,-122.11 224.16,-140.99 224.16,-140.99"/>
<polygon fill="black" stroke="black" points="220.66,-140.99 224.16,-150.99 227.66,-140.99 220.66,-140.99"/>
</g>
</g>
</svg>
