<?xml version="1.0" encoding="UTF-8" standalone="no"?>
<!DOCTYPE svg PUBLIC "-//W3C//DTD SVG 1.1//EN"
 "http://www.w3.org/Graphics/SVG/1.1/DTD/svg11.dtd">
<!-- Generated by graphviz version 2.47.0 (20210316.0004)
 -->
<!-- Title: dependencies Pages: 1 -->
<svg width="504pt" height="284pt"
 viewBox="0.00 0.00 504.00 284.00" xmlns="http://www.w3.org/2000/svg" xmlns:xlink="http://www.w3.org/1999/xlink">
<g id="graph0" class="graph" transform="scale(1 1) rotate(0) translate(4 280)">
<title>dependencies</title>
<polygon fill="white" stroke="transparent" points="-4,4 -4,-280 500,-280 500,4 -4,4"/>
<text text-anchor="start" x="227.01" y="-42.4" font-family="Times-12" font-weight="bold" font-size="14.00">Legend</text>
<polygon fill="#ffffb3" stroke="transparent" points="14,-10 14,-30 34,-30 34,-10 14,-10"/>
<text text-anchor="start" x="37.63" y="-15.4" font-family="Times-12" font-size="14.00"> &#160;Declarations</text>
<polygon fill="#8dd3c7" stroke="transparent" points="127,-10 127,-30 147,-30 147,-10 127,-10"/>
<text text-anchor="start" x="150.73" y="-15.4" font-family="Times-12" font-size="14.00"> &#160;Module</text>
<polygon fill="#80b1d3" stroke="transparent" points="213,-10 213,-30 233,-30 233,-10 213,-10"/>
<text text-anchor="start" x="236.78" y="-15.4" font-family="Times-12" font-size="14.00"> &#160;Bootstrap</text>
<polygon fill="#fdb462" stroke="transparent" points="310,-10 310,-30 330,-30 330,-10 310,-10"/>
<text text-anchor="start" x="333.67" y="-15.4" font-family="Times-12" font-size="14.00"> &#160;Providers</text>
<polygon fill="#fb8072" stroke="transparent" points="406,-10 406,-30 426,-30 426,-10 406,-10"/>
<text text-anchor="start" x="429.73" y="-15.4" font-family="Times-12" font-size="14.00"> &#160;Exports</text>
<g id="clust1" class="cluster">
<title>cluster_CommonModule</title>
<polygon fill="none" stroke="black" stroke-dasharray="1,5" points="88,-70 88,-268 408,-268 408,-70 88,-70"/>
</g>
<g id="clust4" class="cluster">
<title>cluster_CommonModule_exports</title>
<polygon fill="none" stroke="black" points="117,-208 117,-260 353,-260 353,-208 117,-208"/>
</g>
<g id="clust6" class="cluster">
<title>cluster_CommonModule_providers</title>
<polygon fill="none" stroke="black" points="96,-78 96,-130 400,-130 400,-78 96,-78"/>
</g>
<!-- ConfigService  -->
<g id="node1" class="node">
<title>ConfigService </title>
<polygon fill="#fb8072" stroke="black" points="345.37,-252 244.63,-252 244.63,-216 345.37,-216 345.37,-252"/>
<text text-anchor="middle" x="295" y="-229.8" font-family="Times,serif" font-size="14.00">ConfigService </text>
</g>
<!-- LoggerService  -->
<g id="node2" class="node">
<title>LoggerService </title>
<polygon fill="#fb8072" stroke="black" points="226.91,-252 125.09,-252 125.09,-216 226.91,-216 226.91,-252"/>
<text text-anchor="middle" x="176" y="-229.8" font-family="Times,serif" font-size="14.00">LoggerService </text>
</g>
<!-- CommonModule -->
<g id="node3" class="node">
<title>CommonModule</title>
<polygon fill="#8dd3c7" stroke="black" points="252.67,-187 249.67,-191 228.67,-191 225.67,-187 141.33,-187 141.33,-151 252.67,-151 252.67,-187"/>
<text text-anchor="middle" x="197" y="-164.8" font-family="Times,serif" font-size="14.00">CommonModule</text>
</g>
<!-- CommonModule&#45;&gt;ConfigService  -->
<g id="edge1" class="edge">
<title>CommonModule&#45;&gt;ConfigService </title>
<path fill="none" stroke="black" stroke-dasharray="5,2" d="M248.83,-187.11C248.83,-187.11 248.83,-205.99 248.83,-205.99"/>
<polygon fill="black" stroke="black" points="245.33,-205.99 248.83,-215.99 252.33,-205.99 245.33,-205.99"/>
</g>
<!-- CommonModule&#45;&gt;LoggerService  -->
<g id="edge2" class="edge">
<title>CommonModule&#45;&gt;LoggerService </title>
<path fill="none" stroke="black" stroke-dasharray="5,2" d="M184.06,-187.11C184.06,-187.11 184.06,-205.99 184.06,-205.99"/>
<polygon fill="black" stroke="black" points="180.56,-205.99 184.06,-215.99 187.56,-205.99 180.56,-205.99"/>
</g>
<!-- ConfigService -->
<g id="node4" class="node">
<title>ConfigService</title>
<ellipse fill="#fdb462" stroke="black" cx="325" cy="-104" rx="66.63" ry="18"/>
<text text-anchor="middle" x="325" y="-99.8" font-family="Times,serif" font-size="14.00">ConfigService</text>
</g>
<!-- ConfigService&#45;&gt;CommonModule -->
<g id="edge3" class="edge">
<title>ConfigService&#45;&gt;CommonModule</title>
<path fill="none" stroke="black" d="M257.96,-104C250.97,-104 246.36,-104 246.36,-104 246.36,-104 246.36,-140.89 246.36,-140.89"/>
<polygon fill="black" stroke="black" points="242.86,-140.89 246.36,-150.89 249.86,-140.89 242.86,-140.89"/>
</g>
<!-- LoggerService -->
<g id="node5" class="node">
<title>LoggerService</title>
<ellipse fill="#fdb462" stroke="black" cx="172" cy="-104" rx="67.76" ry="18"/>
<text text-anchor="middle" x="172" y="-99.8" font-family="Times,serif" font-size="14.00">LoggerService</text>
</g>
<!-- LoggerService&#45;&gt;CommonModule -->
<g id="edge4" class="edge">
<title>LoggerService&#45;&gt;CommonModule</title>
<path fill="none" stroke="black" d="M190.52,-121.42C190.52,-121.42 190.52,-140.62 190.52,-140.62"/>
<polygon fill="black" stroke="black" points="187.02,-140.62 190.52,-150.62 194.02,-140.62 187.02,-140.62"/>
</g>
</g>
</svg>
