<svg width="24" height="26" viewBox="0 0 24 26" fill="none" xmlns="http://www.w3.org/2000/svg">
<path d="M0.998767 9.32277L11.3381 18.7221C11.6962 19.0483 12.2451 19.0483 12.6032 18.7221L22.9425 9.32277C23.1381 9.14511 23.2499 8.89228 23.2499 8.62723V5.32992L12.6013 14.9643C12.2432 15.2886 11.6981 15.2886 11.34 14.9643L0.691406 5.32992V8.62723C0.691406 8.89228 0.803253 9.14511 0.998767 9.32277Z" fill="#FACC6D"/>
<path d="M0.99876 16.1601L11.3381 25.5594C11.6962 25.8856 12.2451 25.8856 12.6032 25.5594L22.9425 16.1601C23.138 15.9824 23.2499 15.7296 23.2499 15.4645V12.1672L12.6013 21.8016C12.2432 22.1259 11.6981 22.1259 11.34 21.8016L0.691399 12.1672V15.4645C0.691399 15.7296 0.803245 15.9824 0.99876 16.1601Z" fill="#FACC6D"/>
<path d="M23.25 2.79462V1.10838C23.25 0.736164 23.031 0.398741 22.6898 0.248342C22.3505 0.097943 21.9529 0.161874 21.6775 0.41283L11.9708 9.23695L2.26402 0.41283C2.08732 0.252105 1.86078 0.168439 1.63144 0.168439C1.50266 0.168439 1.37388 0.193818 1.25171 0.248342C0.91052 0.398741 0.691507 0.736164 0.691507 1.10838V2.79462L11.9708 12.9995L23.25 2.79462Z" fill="#FACC6D"/>
</svg>
