<svg width="188" height="59" viewBox="0 0 188 59" fill="none" xmlns="http://www.w3.org/2000/svg">
<g filter="url(#filter0_d_1_106)">
<path d="M16.0092 21.3228L26.3757 30.7221C26.7347 31.0483 27.2851 31.0483 27.6441 30.7221L38.0106 21.3228C38.2066 21.1451 38.3187 20.8923 38.3187 20.6272V17.3299L27.6422 26.9643C27.2832 27.2886 26.7366 27.2886 26.3776 26.9643L15.7011 17.3299V20.6272C15.7011 20.8923 15.8132 21.1451 16.0092 21.3228Z" fill="#FACC6D"/>
<path d="M16.0092 28.1601L26.3757 37.5594C26.7347 37.8856 27.2851 37.8856 27.6441 37.5594L38.0106 28.1601C38.2066 27.9824 38.3187 27.7296 38.3187 27.4645V24.1672L27.6422 33.8016C27.2832 34.1259 26.7366 34.1259 26.3776 33.8016L15.7011 24.1672V27.4645C15.7011 27.7296 15.8132 27.9824 16.0092 28.1601Z" fill="#FACC6D"/>
<path d="M38.3188 14.7946V13.1084C38.3188 12.7362 38.0993 12.3987 37.7572 12.2483C37.417 12.0979 37.0184 12.1619 36.7422 12.4128L27.01 21.2369L17.2778 12.4128C17.1007 12.2521 16.8735 12.1684 16.6436 12.1684C16.5145 12.1684 16.3854 12.1938 16.2629 12.2483C15.9208 12.3987 15.7012 12.7362 15.7012 13.1084V14.7946L27.01 24.9995L38.3188 14.7946Z" fill="#FACC6D"/>
</g>
<g filter="url(#filter1_d_1_106)">
<path d="M157.948 16.5266L161.583 25.4499L165.23 16.5266H167.776L162.709 27.6594V34.3H160.457V27.6594L155.39 16.5266H157.948Z" fill="white"/>
</g>
<g filter="url(#filter2_d_1_106)">
<path d="M146.923 16.5266V34.3H144.695V16.5266H146.923ZM151.61 16.5266V18.4553H140.02V16.5266H151.61Z" fill="white"/>
</g>
<g filter="url(#filter3_d_1_106)">
<path d="M132.997 16.5266H135.249V29.0388C135.249 30.3734 134.992 31.4436 134.478 32.2492C133.964 33.0549 133.287 33.6408 132.446 34.007C131.614 34.3651 130.717 34.5441 129.754 34.5441C128.726 34.5441 127.8 34.3651 126.976 34.007C126.151 33.6408 125.495 33.0549 125.005 32.2492C124.524 31.4436 124.283 30.3734 124.283 29.0388V16.5266H126.523V29.0388C126.523 29.9665 126.653 30.6908 126.914 31.2116C127.184 31.7325 127.559 32.0987 128.04 32.3103C128.53 32.5218 129.101 32.6276 129.754 32.6276C130.415 32.6276 130.986 32.5218 131.467 32.3103C131.957 32.0987 132.332 31.7325 132.593 31.2116C132.863 30.6908 132.997 29.9665 132.997 29.0388V16.5266Z" fill="white"/>
</g>
<g filter="url(#filter4_d_1_106)">
<path d="M111.826 34.3H108.791L108.815 32.3835H111.826C112.895 32.3835 113.764 32.18 114.433 31.7731C115.102 31.3581 115.596 30.7478 115.914 29.9421C116.232 29.1283 116.391 28.1232 116.391 26.927V23.8874C116.391 22.9434 116.301 22.1296 116.122 21.446C115.942 20.7624 115.673 20.2009 115.314 19.7614C114.955 19.322 114.502 18.9965 113.956 18.7849C113.409 18.5651 112.768 18.4553 112.034 18.4553H108.73V16.5266H112.034C113.038 16.5266 113.943 16.6853 114.751 17.0026C115.559 17.3119 116.252 17.7798 116.832 18.4064C117.411 19.0249 117.852 19.794 118.154 20.7136C118.464 21.6332 118.619 22.6993 118.619 23.9118V26.927C118.619 28.1395 118.464 29.2056 118.154 30.1252C117.852 31.0448 117.407 31.8138 116.82 32.4323C116.232 33.0508 115.518 33.5188 114.678 33.8361C113.845 34.1454 112.895 34.3 111.826 34.3ZM110.039 16.5266V34.3H107.787V16.5266H110.039Z" fill="white"/>
</g>
<g filter="url(#filter5_d_1_106)">
<path d="M87.0445 16.5266H89.223L93.8861 31.0163L98.5369 16.5266H100.715L94.7306 34.3H93.0171L87.0445 16.5266ZM86.3346 16.5266H88.2439L88.5743 27.3664V34.3H86.3346V16.5266ZM99.5038 16.5266H101.413V34.3H99.1734V27.3664L99.5038 16.5266Z" fill="white"/>
</g>
<g filter="url(#filter6_d_1_106)">
<path d="M80.3399 23.8752V26.9636C80.3399 28.2168 80.2012 29.3195 79.9238 30.2717C79.6545 31.2157 79.2588 32.0051 78.7366 32.6398C78.2144 33.2746 77.5861 33.7507 76.8518 34.0681C76.1174 34.3855 75.2893 34.5441 74.3672 34.5441C73.4779 34.5441 72.666 34.3855 71.9317 34.0681C71.1973 33.7507 70.565 33.2746 70.0346 32.6398C69.5043 32.0051 69.0922 31.2157 68.7985 30.2717C68.5129 29.3195 68.3701 28.2168 68.3701 26.9636V23.8752C68.3701 22.6219 68.5129 21.5233 68.7985 20.5793C69.0841 19.6272 69.492 18.8337 70.0224 18.1989C70.5527 17.5642 71.1851 17.0881 71.9194 16.7707C72.6538 16.4452 73.4656 16.2824 74.355 16.2824C75.277 16.2824 76.1052 16.4452 76.8395 16.7707C77.582 17.0881 78.2103 17.5642 78.7244 18.1989C79.2465 18.8337 79.6464 19.6272 79.9238 20.5793C80.2012 21.5233 80.3399 22.6219 80.3399 23.8752ZM78.1124 26.9636V23.8508C78.1124 22.8742 78.0308 22.036 77.8676 21.3361C77.7044 20.6281 77.4637 20.0503 77.1455 19.6027C76.8273 19.1551 76.4356 18.8256 75.9706 18.614C75.5055 18.3942 74.967 18.2844 74.355 18.2844C73.7757 18.2844 73.2535 18.3942 72.7884 18.614C72.3315 18.8256 71.9398 19.1551 71.6135 19.6027C71.2871 20.0503 71.0341 20.6281 70.8546 21.3361C70.6833 22.036 70.5976 22.8742 70.5976 23.8508V26.9636C70.5976 27.9483 70.6833 28.7946 70.8546 29.5026C71.0341 30.2025 71.2871 30.7803 71.6135 31.236C71.948 31.6836 72.3478 32.0173 72.8129 32.237C73.278 32.4486 73.7961 32.5544 74.3672 32.5544C74.9792 32.5544 75.5177 32.4486 75.9828 32.237C76.456 32.0173 76.8477 31.6836 77.1578 31.236C77.476 30.7803 77.7126 30.2025 77.8676 29.5026C78.0308 28.7946 78.1124 27.9483 78.1124 26.9636Z" fill="white"/>
</g>
<g filter="url(#filter7_d_1_106)">
<path d="M60.9434 28.6481H63.1954C63.1383 29.8689 62.8894 30.9227 62.4488 31.8098C62.0164 32.6887 61.384 33.3641 60.5518 33.8361C59.7277 34.3081 58.6955 34.5441 57.4553 34.5441C56.5659 34.5441 55.7622 34.3692 55.0442 34.0192C54.3262 33.6693 53.7102 33.1688 53.1961 32.5178C52.6902 31.8586 52.3027 31.0692 52.0334 30.1496C51.7641 29.23 51.6295 28.1965 51.6295 27.049V23.7653C51.6295 22.626 51.7641 21.5966 52.0334 20.677C52.3108 19.7574 52.7066 18.972 53.2206 18.321C53.7428 17.6618 54.3751 17.1573 55.1176 16.8073C55.8683 16.4574 56.7169 16.2824 57.6634 16.2824C58.822 16.2824 59.8011 16.5144 60.6007 16.9782C61.4085 17.434 62.0286 18.1053 62.4611 18.9924C62.9017 19.8713 63.1465 20.9496 63.1954 22.2272H60.9434C60.8863 21.2914 60.7394 20.5305 60.5028 19.9445C60.2662 19.3505 59.9154 18.9151 59.4503 18.6384C58.9933 18.3536 58.3977 18.2111 57.6634 18.2111C57.0106 18.2111 56.4435 18.3413 55.9621 18.6018C55.4889 18.8622 55.0972 19.2365 54.7872 19.7248C54.4853 20.205 54.2568 20.7868 54.1018 21.4704C53.9549 22.1459 53.8815 22.9027 53.8815 23.7409V27.049C53.8815 27.8303 53.9427 28.5586 54.0651 29.2341C54.1956 29.9095 54.3996 30.5036 54.677 31.0163C54.9626 31.5209 55.3339 31.9156 55.7908 32.2004C56.2477 32.4852 56.8026 32.6276 57.4553 32.6276C58.2794 32.6276 58.9321 32.4934 59.4136 32.2248C59.895 31.9563 60.2499 31.529 60.4783 30.9431C60.715 30.3571 60.87 29.5922 60.9434 28.6481Z" fill="white"/>
</g>
<defs>
<filter id="filter0_d_1_106" x="0.20105" y="0.667969" width="53.6178" height="56.6361" filterUnits="userSpaceOnUse" color-interpolation-filters="sRGB">
<feFlood flood-opacity="0" result="BackgroundImageFix"/>
<feColorMatrix in="SourceAlpha" type="matrix" values="0 0 0 0 0 0 0 0 0 0 0 0 0 0 0 0 0 0 127 0" result="hardAlpha"/>
<feOffset dy="4"/>
<feGaussianBlur stdDeviation="7.75"/>
<feComposite in2="hardAlpha" operator="out"/>
<feColorMatrix type="matrix" values="0 0 0 0 1 0 0 0 0 0.673759 0 0 0 0 0 0 0 0 0.25 0"/>
<feBlend mode="normal" in2="BackgroundImageFix" result="effect1_dropShadow_1_106"/>
<feBlend mode="normal" in="SourceGraphic" in2="effect1_dropShadow_1_106" result="shape"/>
</filter>
<filter id="filter1_d_1_106" x="135.79" y="0.926565" width="51.5859" height="56.9734" filterUnits="userSpaceOnUse" color-interpolation-filters="sRGB">
<feFlood flood-opacity="0" result="BackgroundImageFix"/>
<feColorMatrix in="SourceAlpha" type="matrix" values="0 0 0 0 0 0 0 0 0 0 0 0 0 0 0 0 0 0 127 0" result="hardAlpha"/>
<feOffset dy="4"/>
<feGaussianBlur stdDeviation="9.8"/>
<feComposite in2="hardAlpha" operator="out"/>
<feColorMatrix type="matrix" values="0 0 0 0 0 0 0 0 0 0 0 0 0 0 0 0 0 0 0.25 0"/>
<feBlend mode="normal" in2="BackgroundImageFix" result="effect1_dropShadow_1_106"/>
<feBlend mode="normal" in="SourceGraphic" in2="effect1_dropShadow_1_106" result="shape"/>
</filter>
<filter id="filter2_d_1_106" x="120.42" y="0.926565" width="50.7903" height="56.9734" filterUnits="userSpaceOnUse" color-interpolation-filters="sRGB">
<feFlood flood-opacity="0" result="BackgroundImageFix"/>
<feColorMatrix in="SourceAlpha" type="matrix" values="0 0 0 0 0 0 0 0 0 0 0 0 0 0 0 0 0 0 127 0" result="hardAlpha"/>
<feOffset dy="4"/>
<feGaussianBlur stdDeviation="9.8"/>
<feComposite in2="hardAlpha" operator="out"/>
<feColorMatrix type="matrix" values="0 0 0 0 0 0 0 0 0 0 0 0 0 0 0 0 0 0 0.25 0"/>
<feBlend mode="normal" in2="BackgroundImageFix" result="effect1_dropShadow_1_106"/>
<feBlend mode="normal" in="SourceGraphic" in2="effect1_dropShadow_1_106" result="shape"/>
</filter>
<filter id="filter3_d_1_106" x="104.683" y="0.926565" width="50.1662" height="57.2176" filterUnits="userSpaceOnUse" color-interpolation-filters="sRGB">
<feFlood flood-opacity="0" result="BackgroundImageFix"/>
<feColorMatrix in="SourceAlpha" type="matrix" values="0 0 0 0 0 0 0 0 0 0 0 0 0 0 0 0 0 0 127 0" result="hardAlpha"/>
<feOffset dy="4"/>
<feGaussianBlur stdDeviation="9.8"/>
<feComposite in2="hardAlpha" operator="out"/>
<feColorMatrix type="matrix" values="0 0 0 0 0 0 0 0 0 0 0 0 0 0 0 0 0 0 0.25 0"/>
<feBlend mode="normal" in2="BackgroundImageFix" result="effect1_dropShadow_1_106"/>
<feBlend mode="normal" in="SourceGraphic" in2="effect1_dropShadow_1_106" result="shape"/>
</filter>
<filter id="filter4_d_1_106" x="88.1871" y="0.926565" width="50.0315" height="56.9734" filterUnits="userSpaceOnUse" color-interpolation-filters="sRGB">
<feFlood flood-opacity="0" result="BackgroundImageFix"/>
<feColorMatrix in="SourceAlpha" type="matrix" values="0 0 0 0 0 0 0 0 0 0 0 0 0 0 0 0 0 0 127 0" result="hardAlpha"/>
<feOffset dy="4"/>
<feGaussianBlur stdDeviation="9.8"/>
<feComposite in2="hardAlpha" operator="out"/>
<feColorMatrix type="matrix" values="0 0 0 0 0 0 0 0 0 0 0 0 0 0 0 0 0 0 0.25 0"/>
<feBlend mode="normal" in2="BackgroundImageFix" result="effect1_dropShadow_1_106"/>
<feBlend mode="normal" in="SourceGraphic" in2="effect1_dropShadow_1_106" result="shape"/>
</filter>
<filter id="filter5_d_1_106" x="66.7346" y="0.926565" width="54.2785" height="56.9734" filterUnits="userSpaceOnUse" color-interpolation-filters="sRGB">
<feFlood flood-opacity="0" result="BackgroundImageFix"/>
<feColorMatrix in="SourceAlpha" type="matrix" values="0 0 0 0 0 0 0 0 0 0 0 0 0 0 0 0 0 0 127 0" result="hardAlpha"/>
<feOffset dy="4"/>
<feGaussianBlur stdDeviation="9.8"/>
<feComposite in2="hardAlpha" operator="out"/>
<feColorMatrix type="matrix" values="0 0 0 0 0 0 0 0 0 0 0 0 0 0 0 0 0 0 0.25 0"/>
<feBlend mode="normal" in2="BackgroundImageFix" result="effect1_dropShadow_1_106"/>
<feBlend mode="normal" in="SourceGraphic" in2="effect1_dropShadow_1_106" result="shape"/>
</filter>
<filter id="filter6_d_1_106" x="48.7701" y="0.682425" width="51.1697" height="57.4617" filterUnits="userSpaceOnUse" color-interpolation-filters="sRGB">
<feFlood flood-opacity="0" result="BackgroundImageFix"/>
<feColorMatrix in="SourceAlpha" type="matrix" values="0 0 0 0 0 0 0 0 0 0 0 0 0 0 0 0 0 0 127 0" result="hardAlpha"/>
<feOffset dy="4"/>
<feGaussianBlur stdDeviation="9.8"/>
<feComposite in2="hardAlpha" operator="out"/>
<feColorMatrix type="matrix" values="0 0 0 0 0 0 0 0 0 0 0 0 0 0 0 0 0 0 0.25 0"/>
<feBlend mode="normal" in2="BackgroundImageFix" result="effect1_dropShadow_1_106"/>
<feBlend mode="normal" in="SourceGraphic" in2="effect1_dropShadow_1_106" result="shape"/>
</filter>
<filter id="filter7_d_1_106" x="32.0295" y="0.682425" width="50.7659" height="57.4617" filterUnits="userSpaceOnUse" color-interpolation-filters="sRGB">
<feFlood flood-opacity="0" result="BackgroundImageFix"/>
<feColorMatrix in="SourceAlpha" type="matrix" values="0 0 0 0 0 0 0 0 0 0 0 0 0 0 0 0 0 0 127 0" result="hardAlpha"/>
<feOffset dy="4"/>
<feGaussianBlur stdDeviation="9.8"/>
<feComposite in2="hardAlpha" operator="out"/>
<feColorMatrix type="matrix" values="0 0 0 0 0 0 0 0 0 0 0 0 0 0 0 0 0 0 0.25 0"/>
<feBlend mode="normal" in2="BackgroundImageFix" result="effect1_dropShadow_1_106"/>
<feBlend mode="normal" in="SourceGraphic" in2="effect1_dropShadow_1_106" result="shape"/>
</filter>
</defs>
</svg>
