<svg width="1574" height="300" viewBox="0 0 1574 300" fill="none" xmlns="http://www.w3.org/2000/svg">
<g filter="url(#filter0_d_1_105)">
<path d="M39.9877 113.228L143.381 207.222C146.962 210.483 152.451 210.483 156.032 207.222L259.425 113.228C261.38 111.451 262.499 108.923 262.499 106.272V73.2993L156.013 169.643C152.432 172.886 146.981 172.886 143.4 169.643L36.9141 73.2993L36.9141 106.272C36.9141 108.923 38.0325 111.451 39.9877 113.228Z" fill="#FACC6D"/>
<path d="M39.9876 181.601L143.381 275.594C146.962 278.856 152.451 278.856 156.032 275.594L259.425 181.601C261.38 179.824 262.499 177.296 262.499 174.645V141.672L156.013 238.016C152.432 241.259 146.981 241.259 143.4 238.016L36.914 141.672L36.914 174.645C36.914 177.296 38.0324 179.824 39.9876 181.601Z" fill="#FACC6D"/>
<path d="M262.5 47.9462V31.0838C262.5 27.3616 260.31 23.9874 256.898 22.4834C253.505 20.9794 249.529 21.6187 246.775 24.1283L149.708 112.37L52.6402 24.1283C50.8732 22.521 48.6078 21.6844 46.3145 21.6844C45.0266 21.6844 43.7388 21.9382 42.5171 22.4834C39.1052 23.9874 36.9151 27.3616 36.9151 31.0838L36.9151 47.9462L149.708 149.995L262.5 47.9462Z" fill="#FACC6D"/>
</g>
<g filter="url(#filter1_d_1_105)">
<path d="M1455.66 65.2656L1491.91 154.499L1528.29 65.2656H1553.68L1503.14 176.594V243H1480.68V176.594L1430.15 65.2656H1455.66Z" fill="white"/>
</g>
<g filter="url(#filter2_d_1_105)">
<path d="M1345.7 65.2656V243H1323.48V65.2656H1345.7ZM1392.45 65.2656V84.5527H1276.85V65.2656H1392.45Z" fill="white"/>
</g>
<g filter="url(#filter3_d_1_105)">
<path d="M1206.81 65.2656H1229.27V190.388C1229.27 203.734 1226.7 214.436 1221.58 222.492C1216.45 230.549 1209.7 236.408 1201.31 240.07C1193.01 243.651 1184.06 245.441 1174.46 245.441C1164.2 245.441 1154.97 243.651 1146.75 240.07C1138.53 236.408 1131.98 230.549 1127.09 222.492C1122.29 214.436 1119.89 203.734 1119.89 190.388V65.2656H1142.23V190.388C1142.23 199.665 1143.53 206.908 1146.14 212.116C1148.82 217.325 1152.57 220.987 1157.37 223.103C1162.25 225.218 1167.95 226.276 1174.46 226.276C1181.05 226.276 1186.75 225.218 1191.55 223.103C1196.43 220.987 1200.17 217.325 1202.78 212.116C1205.46 206.908 1206.81 199.665 1206.81 190.388V65.2656Z" fill="white"/>
</g>
<g filter="url(#filter4_d_1_105)">
<path d="M995.649 243H965.376L965.62 223.835H995.649C1006.31 223.835 1014.98 221.8 1021.65 217.731C1028.32 213.581 1033.25 207.478 1036.42 199.421C1039.59 191.283 1041.18 181.232 1041.18 169.27V138.874C1041.18 129.434 1040.29 121.296 1038.5 114.46C1036.71 107.624 1034.02 102.009 1030.44 97.6143C1026.86 93.2197 1022.34 89.9645 1016.89 87.8486C1011.44 85.6514 1005.05 84.5527 997.725 84.5527H964.766V65.2656H997.725C1007.73 65.2656 1016.77 66.8525 1024.82 70.0264C1032.88 73.1188 1039.8 77.7982 1045.58 84.0645C1051.35 90.2493 1055.75 97.9398 1058.76 107.136C1061.85 116.332 1063.4 126.993 1063.4 139.118V169.27C1063.4 181.395 1061.85 192.056 1058.76 201.252C1055.75 210.448 1051.31 218.138 1045.45 224.323C1039.59 230.508 1032.47 235.188 1024.09 238.361C1015.79 241.454 1006.31 243 995.649 243ZM977.827 65.2656V243H955.366V65.2656H977.827Z" fill="white"/>
</g>
<g filter="url(#filter5_d_1_105)">
<path d="M748.481 65.2656H770.21L816.719 210.163L863.105 65.2656H884.834L825.142 243H808.052L748.481 65.2656ZM741.401 65.2656H760.444L763.74 173.664V243H741.401V65.2656ZM872.749 65.2656H891.792V243H869.453V173.664L872.749 65.2656Z" fill="white"/>
</g>
<g filter="url(#filter6_d_1_105)">
<path d="M681.611 138.752V169.636C681.611 182.168 680.228 193.195 677.461 202.717C674.775 212.157 670.828 220.051 665.62 226.398C660.412 232.746 654.146 237.507 646.821 240.681C639.497 243.854 631.237 245.441 622.041 245.441C613.171 245.441 605.073 243.854 597.749 240.681C590.425 237.507 584.118 232.746 578.828 226.398C573.538 220.051 569.429 212.157 566.499 202.717C563.651 193.195 562.227 182.168 562.227 169.636V138.752C562.227 126.219 563.651 115.233 566.499 105.793C569.347 96.2715 573.416 88.3369 578.706 81.9893C583.996 75.6416 590.303 70.8809 597.627 67.707C604.951 64.4518 613.049 62.8242 621.919 62.8242C631.115 62.8242 639.375 64.4518 646.699 67.707C654.105 70.8809 660.371 75.6416 665.498 81.9893C670.706 88.3369 674.694 96.2715 677.461 105.793C680.228 115.233 681.611 126.219 681.611 138.752ZM659.395 169.636V138.508C659.395 128.742 658.581 120.36 656.953 113.361C655.326 106.281 652.925 100.503 649.751 96.0273C646.577 91.5514 642.671 88.2555 638.032 86.1396C633.394 83.9424 628.022 82.8438 621.919 82.8438C616.141 82.8438 610.933 83.9424 606.294 86.1396C601.737 88.2555 597.83 91.5514 594.575 96.0273C591.32 100.503 588.797 106.281 587.007 113.361C585.298 120.36 584.443 128.742 584.443 138.508V169.636C584.443 179.483 585.298 187.946 587.007 195.026C588.797 202.025 591.32 207.803 594.575 212.36C597.912 216.836 601.899 220.173 606.538 222.37C611.177 224.486 616.344 225.544 622.041 225.544C628.145 225.544 633.516 224.486 638.154 222.37C642.874 220.173 646.781 216.836 649.873 212.36C653.047 207.803 655.407 202.025 656.953 195.026C658.581 187.946 659.395 179.483 659.395 169.636Z" fill="white"/>
</g>
<g filter="url(#filter7_d_1_105)">
<path d="M488.154 186.481H510.615C510.046 198.688 507.563 209.227 503.169 218.098C498.856 226.887 492.549 233.641 484.248 238.361C476.029 243.081 465.734 245.441 453.364 245.441C444.494 245.441 436.478 243.692 429.316 240.192C422.155 236.693 416.011 231.688 410.884 225.178C405.838 218.586 401.973 210.692 399.287 201.496C396.602 192.3 395.259 181.965 395.259 170.49V137.653C395.259 126.26 396.602 115.965 399.287 106.77C402.054 97.5736 406.001 89.7204 411.128 83.21C416.336 76.6182 422.643 71.5726 430.049 68.0732C437.536 64.5739 445.999 62.8242 455.439 62.8242C466.995 62.8242 476.761 65.1436 484.736 69.7822C492.793 74.3395 498.978 81.0534 503.291 89.9238C507.686 98.7129 510.127 109.496 510.615 122.272H488.154C487.585 112.914 486.12 105.305 483.76 99.4453C481.4 93.5046 477.9 89.1507 473.262 86.3838C468.704 83.5355 462.764 82.1113 455.439 82.1113C448.929 82.1113 443.273 83.4134 438.472 86.0176C433.752 88.6217 429.845 92.3652 426.753 97.248C423.742 102.049 421.463 107.868 419.917 114.704C418.452 121.459 417.72 129.027 417.72 137.409V170.49C417.72 178.303 418.33 185.586 419.551 192.341C420.853 199.095 422.887 205.036 425.654 210.163C428.503 215.209 432.205 219.156 436.763 222.004C441.32 224.852 446.854 226.276 453.364 226.276C461.584 226.276 468.094 224.934 472.896 222.248C477.697 219.562 481.237 215.29 483.516 209.431C485.876 203.571 487.422 195.922 488.154 186.481Z" fill="white"/>
</g>
<defs>
<filter id="filter0_d_1_105" x="21.414" y="10.1797" width="256.586" height="287.361" filterUnits="userSpaceOnUse" color-interpolation-filters="sRGB">
<feFlood flood-opacity="0" result="BackgroundImageFix"/>
<feColorMatrix in="SourceAlpha" type="matrix" values="0 0 0 0 0 0 0 0 0 0 0 0 0 0 0 0 0 0 127 0" result="hardAlpha"/>
<feOffset dy="4"/>
<feGaussianBlur stdDeviation="7.75"/>
<feComposite in2="hardAlpha" operator="out"/>
<feColorMatrix type="matrix" values="0 0 0 0 1 0 0 0 0 0.673759 0 0 0 0 0 0 0 0 0.25 0"/>
<feBlend mode="normal" in2="BackgroundImageFix" result="effect1_dropShadow_1_105"/>
<feBlend mode="normal" in="SourceGraphic" in2="effect1_dropShadow_1_105" result="shape"/>
</filter>
<filter id="filter1_d_1_105" x="1410.55" y="49.6656" width="162.735" height="216.934" filterUnits="userSpaceOnUse" color-interpolation-filters="sRGB">
<feFlood flood-opacity="0" result="BackgroundImageFix"/>
<feColorMatrix in="SourceAlpha" type="matrix" values="0 0 0 0 0 0 0 0 0 0 0 0 0 0 0 0 0 0 127 0" result="hardAlpha"/>
<feOffset dy="4"/>
<feGaussianBlur stdDeviation="9.8"/>
<feComposite in2="hardAlpha" operator="out"/>
<feColorMatrix type="matrix" values="0 0 0 0 0 0 0 0 0 0 0 0 0 0 0 0 0 0 0.25 0"/>
<feBlend mode="normal" in2="BackgroundImageFix" result="effect1_dropShadow_1_105"/>
<feBlend mode="normal" in="SourceGraphic" in2="effect1_dropShadow_1_105" result="shape"/>
</filter>
<filter id="filter2_d_1_105" x="1257.25" y="49.6656" width="154.801" height="216.934" filterUnits="userSpaceOnUse" color-interpolation-filters="sRGB">
<feFlood flood-opacity="0" result="BackgroundImageFix"/>
<feColorMatrix in="SourceAlpha" type="matrix" values="0 0 0 0 0 0 0 0 0 0 0 0 0 0 0 0 0 0 127 0" result="hardAlpha"/>
<feOffset dy="4"/>
<feGaussianBlur stdDeviation="9.8"/>
<feComposite in2="hardAlpha" operator="out"/>
<feColorMatrix type="matrix" values="0 0 0 0 0 0 0 0 0 0 0 0 0 0 0 0 0 0 0.25 0"/>
<feBlend mode="normal" in2="BackgroundImageFix" result="effect1_dropShadow_1_105"/>
<feBlend mode="normal" in="SourceGraphic" in2="effect1_dropShadow_1_105" result="shape"/>
</filter>
<filter id="filter3_d_1_105" x="1100.29" y="49.6656" width="148.575" height="219.376" filterUnits="userSpaceOnUse" color-interpolation-filters="sRGB">
<feFlood flood-opacity="0" result="BackgroundImageFix"/>
<feColorMatrix in="SourceAlpha" type="matrix" values="0 0 0 0 0 0 0 0 0 0 0 0 0 0 0 0 0 0 127 0" result="hardAlpha"/>
<feOffset dy="4"/>
<feGaussianBlur stdDeviation="9.8"/>
<feComposite in2="hardAlpha" operator="out"/>
<feColorMatrix type="matrix" values="0 0 0 0 0 0 0 0 0 0 0 0 0 0 0 0 0 0 0.25 0"/>
<feBlend mode="normal" in2="BackgroundImageFix" result="effect1_dropShadow_1_105"/>
<feBlend mode="normal" in="SourceGraphic" in2="effect1_dropShadow_1_105" result="shape"/>
</filter>
<filter id="filter4_d_1_105" x="935.766" y="49.6656" width="147.232" height="216.934" filterUnits="userSpaceOnUse" color-interpolation-filters="sRGB">
<feFlood flood-opacity="0" result="BackgroundImageFix"/>
<feColorMatrix in="SourceAlpha" type="matrix" values="0 0 0 0 0 0 0 0 0 0 0 0 0 0 0 0 0 0 127 0" result="hardAlpha"/>
<feOffset dy="4"/>
<feGaussianBlur stdDeviation="9.8"/>
<feComposite in2="hardAlpha" operator="out"/>
<feColorMatrix type="matrix" values="0 0 0 0 0 0 0 0 0 0 0 0 0 0 0 0 0 0 0.25 0"/>
<feBlend mode="normal" in2="BackgroundImageFix" result="effect1_dropShadow_1_105"/>
<feBlend mode="normal" in="SourceGraphic" in2="effect1_dropShadow_1_105" result="shape"/>
</filter>
<filter id="filter5_d_1_105" x="721.801" y="49.6656" width="189.591" height="216.934" filterUnits="userSpaceOnUse" color-interpolation-filters="sRGB">
<feFlood flood-opacity="0" result="BackgroundImageFix"/>
<feColorMatrix in="SourceAlpha" type="matrix" values="0 0 0 0 0 0 0 0 0 0 0 0 0 0 0 0 0 0 127 0" result="hardAlpha"/>
<feOffset dy="4"/>
<feGaussianBlur stdDeviation="9.8"/>
<feComposite in2="hardAlpha" operator="out"/>
<feColorMatrix type="matrix" values="0 0 0 0 0 0 0 0 0 0 0 0 0 0 0 0 0 0 0.25 0"/>
<feBlend mode="normal" in2="BackgroundImageFix" result="effect1_dropShadow_1_105"/>
<feBlend mode="normal" in="SourceGraphic" in2="effect1_dropShadow_1_105" result="shape"/>
</filter>
<filter id="filter6_d_1_105" x="542.627" y="47.2242" width="158.585" height="221.817" filterUnits="userSpaceOnUse" color-interpolation-filters="sRGB">
<feFlood flood-opacity="0" result="BackgroundImageFix"/>
<feColorMatrix in="SourceAlpha" type="matrix" values="0 0 0 0 0 0 0 0 0 0 0 0 0 0 0 0 0 0 127 0" result="hardAlpha"/>
<feOffset dy="4"/>
<feGaussianBlur stdDeviation="9.8"/>
<feComposite in2="hardAlpha" operator="out"/>
<feColorMatrix type="matrix" values="0 0 0 0 0 0 0 0 0 0 0 0 0 0 0 0 0 0 0.25 0"/>
<feBlend mode="normal" in2="BackgroundImageFix" result="effect1_dropShadow_1_105"/>
<feBlend mode="normal" in="SourceGraphic" in2="effect1_dropShadow_1_105" result="shape"/>
</filter>
<filter id="filter7_d_1_105" x="375.659" y="47.2242" width="154.556" height="221.817" filterUnits="userSpaceOnUse" color-interpolation-filters="sRGB">
<feFlood flood-opacity="0" result="BackgroundImageFix"/>
<feColorMatrix in="SourceAlpha" type="matrix" values="0 0 0 0 0 0 0 0 0 0 0 0 0 0 0 0 0 0 127 0" result="hardAlpha"/>
<feOffset dy="4"/>
<feGaussianBlur stdDeviation="9.8"/>
<feComposite in2="hardAlpha" operator="out"/>
<feColorMatrix type="matrix" values="0 0 0 0 0 0 0 0 0 0 0 0 0 0 0 0 0 0 0.25 0"/>
<feBlend mode="normal" in2="BackgroundImageFix" result="effect1_dropShadow_1_105"/>
<feBlend mode="normal" in="SourceGraphic" in2="effect1_dropShadow_1_105" result="shape"/>
</filter>
</defs>
</svg>
