<?xml version="1.0" encoding="UTF-8" standalone="no"?>
<!DOCTYPE svg PUBLIC "-//W3C//DTD SVG 1.1//EN"
 "http://www.w3.org/Graphics/SVG/1.1/DTD/svg11.dtd">
<!-- Generated by graphviz version 2.47.0 (20210316.0004)
 -->
<!-- Title: dependencies Pages: 1 -->
<svg width="740pt" height="222pt"
 viewBox="0.00 0.00 740.00 222.00" xmlns="http://www.w3.org/2000/svg" xmlns:xlink="http://www.w3.org/1999/xlink">
<g id="graph0" class="graph" transform="scale(1 1) rotate(0) translate(4 218)">
<title>dependencies</title>
<polygon fill="white" stroke="transparent" points="-4,4 -4,-218 736,-218 736,4 -4,4"/>
<text text-anchor="start" x="345.01" y="-42.4" font-family="Times-12" font-weight="bold" font-size="14.00">Legend</text>
<polygon fill="#ffffb3" stroke="transparent" points="132,-10 132,-30 152,-30 152,-10 132,-10"/>
<text text-anchor="start" x="155.63" y="-15.4" font-family="Times-12" font-size="14.00"> &#160;Declarations</text>
<polygon fill="#8dd3c7" stroke="transparent" points="245,-10 245,-30 265,-30 265,-10 245,-10"/>
<text text-anchor="start" x="268.73" y="-15.4" font-family="Times-12" font-size="14.00"> &#160;Module</text>
<polygon fill="#80b1d3" stroke="transparent" points="331,-10 331,-30 351,-30 351,-10 331,-10"/>
<text text-anchor="start" x="354.78" y="-15.4" font-family="Times-12" font-size="14.00"> &#160;Bootstrap</text>
<polygon fill="#fdb462" stroke="transparent" points="428,-10 428,-30 448,-30 448,-10 428,-10"/>
<text text-anchor="start" x="451.67" y="-15.4" font-family="Times-12" font-size="14.00"> &#160;Providers</text>
<polygon fill="#fb8072" stroke="transparent" points="524,-10 524,-30 544,-30 544,-10 524,-10"/>
<text text-anchor="start" x="547.73" y="-15.4" font-family="Times-12" font-size="14.00"> &#160;Exports</text>
<g id="clust1" class="cluster">
<title>cluster_AppModule</title>
<polygon fill="none" stroke="black" stroke-dasharray="1,5" points="8,-70 8,-198 152,-198 152,-70 8,-70"/>
</g>
<g id="clust3" class="cluster">
<title>cluster_AppModule_imports</title>
<polygon fill="none" stroke="black" points="16,-78 16,-130 144,-130 144,-78 16,-78"/>
</g>
<g id="clust7" class="cluster">
<title>cluster_CommonModule</title>
<polygon fill="none" stroke="black" stroke-dasharray="1,5" points="160,-138 160,-206 724,-206 724,-138 160,-138"/>
</g>
<g id="clust10" class="cluster">
<title>cluster_CommonModule_exports</title>
<polygon fill="none" stroke="black" points="480,-146 480,-198 716,-198 716,-146 480,-146"/>
</g>
<g id="clust12" class="cluster">
<title>cluster_CommonModule_providers</title>
<polygon fill="none" stroke="black" points="168,-146 168,-198 472,-198 472,-146 168,-146"/>
</g>
<!-- CommonModule -->
<g id="node1" class="node">
<title>CommonModule</title>
<polygon fill="#8dd3c7" stroke="black" points="135.67,-122 132.67,-126 111.67,-126 108.67,-122 24.33,-122 24.33,-86 135.67,-86 135.67,-122"/>
<text text-anchor="middle" x="80" y="-99.8" font-family="Times,serif" font-size="14.00">CommonModule</text>
</g>
<!-- AppModule -->
<g id="node2" class="node">
<title>AppModule</title>
<polygon fill="#8dd3c7" stroke="black" points="121.66,-190 118.66,-194 97.66,-194 94.66,-190 38.34,-190 38.34,-154 121.66,-154 121.66,-190"/>
<text text-anchor="middle" x="80" y="-167.8" font-family="Times,serif" font-size="14.00">AppModule</text>
</g>
<!-- CommonModule&#45;&gt;AppModule -->
<g id="edge1" class="edge">
<title>CommonModule&#45;&gt;AppModule</title>
<path fill="none" stroke="black" d="M80,-122.22C80,-122.22 80,-143.73 80,-143.73"/>
<polygon fill="black" stroke="black" points="76.5,-143.73 80,-153.73 83.5,-143.73 76.5,-143.73"/>
</g>
<!-- ConfigService  -->
<g id="node3" class="node">
<title>ConfigService </title>
<polygon fill="#fb8072" stroke="black" points="708.37,-190 607.63,-190 607.63,-154 708.37,-154 708.37,-190"/>
<text text-anchor="middle" x="658" y="-167.8" font-family="Times,serif" font-size="14.00">ConfigService </text>
</g>
<!-- CommonModule&#45;&gt;ConfigService  -->
<g id="edge2" class="edge">
<title>CommonModule&#45;&gt;ConfigService </title>
<path fill="none" stroke="black" stroke-dasharray="5,2" d="M135.68,-95C280.55,-95 658,-95 658,-95 658,-95 658,-143.75 658,-143.75"/>
<polygon fill="black" stroke="black" points="654.5,-143.75 658,-153.75 661.5,-143.75 654.5,-143.75"/>
</g>
<!-- LoggerService  -->
<g id="node4" class="node">
<title>LoggerService </title>
<polygon fill="#fb8072" stroke="black" points="589.91,-190 488.09,-190 488.09,-154 589.91,-154 589.91,-190"/>
<text text-anchor="middle" x="539" y="-167.8" font-family="Times,serif" font-size="14.00">LoggerService </text>
</g>
<!-- CommonModule&#45;&gt;LoggerService  -->
<g id="edge3" class="edge">
<title>CommonModule&#45;&gt;LoggerService </title>
<path fill="none" stroke="black" stroke-dasharray="5,2" d="M135.82,-104C258.15,-104 539,-104 539,-104 539,-104 539,-143.78 539,-143.78"/>
<polygon fill="black" stroke="black" points="535.5,-143.78 539,-153.78 542.5,-143.78 535.5,-143.78"/>
</g>
<!-- ConfigService -->
<g id="node5" class="node">
<title>ConfigService</title>
<ellipse fill="#fdb462" stroke="black" cx="397" cy="-172" rx="66.63" ry="18"/>
<text text-anchor="middle" x="397" y="-167.8" font-family="Times,serif" font-size="14.00">ConfigService</text>
</g>
<!-- ConfigService&#45;&gt;CommonModule -->
<g id="edge4" class="edge">
<title>ConfigService&#45;&gt;CommonModule</title>
<path fill="none" stroke="black" d="M397,-153.98C397,-136.63 397,-113 397,-113 397,-113 145.94,-113 145.94,-113"/>
<polygon fill="black" stroke="black" points="145.94,-109.5 135.94,-113 145.94,-116.5 145.94,-109.5"/>
</g>
<!-- LoggerService -->
<g id="node6" class="node">
<title>LoggerService</title>
<ellipse fill="#fdb462" stroke="black" cx="244" cy="-172" rx="67.76" ry="18"/>
<text text-anchor="middle" x="244" y="-167.8" font-family="Times,serif" font-size="14.00">LoggerService</text>
</g>
<!-- LoggerService&#45;&gt;CommonModule -->
<g id="edge5" class="edge">
<title>LoggerService&#45;&gt;CommonModule</title>
<path fill="none" stroke="black" d="M176.01,-172C151.07,-172 128.83,-172 128.83,-172 128.83,-172 128.83,-132.22 128.83,-132.22"/>
<polygon fill="black" stroke="black" points="132.33,-132.22 128.83,-122.22 125.33,-132.22 132.33,-132.22"/>
</g>
</g>
</svg>
