<?xml version="1.0" encoding="UTF-8" standalone="no"?>
<!DOCTYPE svg PUBLIC "-//W3C//DTD SVG 1.1//EN"
 "http://www.w3.org/Graphics/SVG/1.1/DTD/svg11.dtd">
<!-- Generated by graphviz version 2.47.0 (20210316.0004)
 -->
<!-- Title: dependencies Pages: 1 -->
<svg width="990pt" height="298pt"
 viewBox="0.00 0.00 990.00 298.00" xmlns="http://www.w3.org/2000/svg" xmlns:xlink="http://www.w3.org/1999/xlink">
<g id="graph0" class="graph" transform="scale(1 1) rotate(0) translate(4 294)">
<title>dependencies</title>
<polygon fill="white" stroke="transparent" points="-4,4 -4,-294 986,-294 986,4 -4,4"/>
<text text-anchor="start" x="470.01" y="-42.4" font-family="Times-12" font-weight="bold" font-size="14.00">Legend</text>
<polygon fill="#ffffb3" stroke="transparent" points="257,-10 257,-30 277,-30 277,-10 257,-10"/>
<text text-anchor="start" x="280.63" y="-15.4" font-family="Times-12" font-size="14.00"> &#160;Declarations</text>
<polygon fill="#8dd3c7" stroke="transparent" points="370,-10 370,-30 390,-30 390,-10 370,-10"/>
<text text-anchor="start" x="393.73" y="-15.4" font-family="Times-12" font-size="14.00"> &#160;Module</text>
<polygon fill="#80b1d3" stroke="transparent" points="456,-10 456,-30 476,-30 476,-10 456,-10"/>
<text text-anchor="start" x="479.78" y="-15.4" font-family="Times-12" font-size="14.00"> &#160;Bootstrap</text>
<polygon fill="#fdb462" stroke="transparent" points="553,-10 553,-30 573,-30 573,-10 553,-10"/>
<text text-anchor="start" x="576.67" y="-15.4" font-family="Times-12" font-size="14.00"> &#160;Providers</text>
<polygon fill="#fb8072" stroke="transparent" points="649,-10 649,-30 669,-30 669,-10 649,-10"/>
<text text-anchor="start" x="672.73" y="-15.4" font-family="Times-12" font-size="14.00"> &#160;Exports</text>
<g id="clust1" class="cluster">
<title>cluster_AppModule</title>
<polygon fill="none" stroke="black" stroke-dasharray="1,5" points="124,-146 124,-274 402,-274 402,-146 124,-146"/>
</g>
<g id="clust3" class="cluster">
<title>cluster_AppModule_imports</title>
<polygon fill="none" stroke="black" points="132,-154 132,-206 394,-206 394,-154 132,-154"/>
</g>
<g id="clust7" class="cluster">
<title>cluster_CommonModule</title>
<polygon fill="none" stroke="black" stroke-dasharray="1,5" points="410,-214 410,-282 974,-282 974,-214 410,-214"/>
</g>
<g id="clust10" class="cluster">
<title>cluster_CommonModule_exports</title>
<polygon fill="none" stroke="black" points="730,-222 730,-274 966,-274 966,-222 730,-222"/>
</g>
<g id="clust12" class="cluster">
<title>cluster_CommonModule_providers</title>
<polygon fill="none" stroke="black" points="418,-222 418,-274 722,-274 722,-222 418,-222"/>
</g>
<g id="clust13" class="cluster">
<title>cluster_EmployeeModule</title>
<polygon fill="none" stroke="black" stroke-dasharray="1,5" points="8,-70 8,-138 402,-138 402,-70 8,-70"/>
</g>
<g id="clust18" class="cluster">
<title>cluster_EmployeeModule_providers</title>
<polygon fill="none" stroke="black" points="16,-78 16,-130 394,-130 394,-78 16,-78"/>
</g>
<!-- CommonModule -->
<g id="node1" class="node">
<title>CommonModule</title>
<polygon fill="#8dd3c7" stroke="black" points="385.67,-198 382.67,-202 361.67,-202 358.67,-198 274.33,-198 274.33,-162 385.67,-162 385.67,-198"/>
<text text-anchor="middle" x="330" y="-175.8" font-family="Times,serif" font-size="14.00">CommonModule</text>
</g>
<!-- AppModule -->
<g id="node3" class="node">
<title>AppModule</title>
<polygon fill="#8dd3c7" stroke="black" points="305.66,-266 302.66,-270 281.66,-270 278.66,-266 222.34,-266 222.34,-230 305.66,-230 305.66,-266"/>
<text text-anchor="middle" x="264" y="-243.8" font-family="Times,serif" font-size="14.00">AppModule</text>
</g>
<!-- CommonModule&#45;&gt;AppModule -->
<g id="edge1" class="edge">
<title>CommonModule&#45;&gt;AppModule</title>
<path fill="none" stroke="black" d="M290,-198.22C290,-198.22 290,-219.73 290,-219.73"/>
<polygon fill="black" stroke="black" points="286.5,-219.73 290,-229.73 293.5,-219.73 286.5,-219.73"/>
</g>
<!-- ConfigService  -->
<g id="node4" class="node">
<title>ConfigService </title>
<polygon fill="#fb8072" stroke="black" points="958.37,-266 857.63,-266 857.63,-230 958.37,-230 958.37,-266"/>
<text text-anchor="middle" x="908" y="-243.8" font-family="Times,serif" font-size="14.00">ConfigService </text>
</g>
<!-- CommonModule&#45;&gt;ConfigService  -->
<g id="edge3" class="edge">
<title>CommonModule&#45;&gt;ConfigService </title>
<path fill="none" stroke="black" stroke-dasharray="5,2" d="M385.68,-171C530.55,-171 908,-171 908,-171 908,-171 908,-219.75 908,-219.75"/>
<polygon fill="black" stroke="black" points="904.5,-219.75 908,-229.75 911.5,-219.75 904.5,-219.75"/>
</g>
<!-- LoggerService  -->
<g id="node5" class="node">
<title>LoggerService </title>
<polygon fill="#fb8072" stroke="black" points="839.91,-266 738.09,-266 738.09,-230 839.91,-230 839.91,-266"/>
<text text-anchor="middle" x="789" y="-243.8" font-family="Times,serif" font-size="14.00">LoggerService </text>
</g>
<!-- CommonModule&#45;&gt;LoggerService  -->
<g id="edge4" class="edge">
<title>CommonModule&#45;&gt;LoggerService </title>
<path fill="none" stroke="black" stroke-dasharray="5,2" d="M385.82,-180C508.15,-180 789,-180 789,-180 789,-180 789,-219.78 789,-219.78"/>
<polygon fill="black" stroke="black" points="785.5,-219.78 789,-229.78 792.5,-219.78 785.5,-219.78"/>
</g>
<!-- EmployeeModule -->
<g id="node2" class="node">
<title>EmployeeModule</title>
<polygon fill="#8dd3c7" stroke="black" points="256.31,-198 253.31,-202 232.31,-202 229.31,-198 139.69,-198 139.69,-162 256.31,-162 256.31,-198"/>
<text text-anchor="middle" x="198" y="-175.8" font-family="Times,serif" font-size="14.00">EmployeeModule</text>
</g>
<!-- EmployeeModule&#45;&gt;AppModule -->
<g id="edge2" class="edge">
<title>EmployeeModule&#45;&gt;AppModule</title>
<path fill="none" stroke="black" d="M239.16,-198.22C239.16,-198.22 239.16,-219.73 239.16,-219.73"/>
<polygon fill="black" stroke="black" points="235.66,-219.73 239.16,-229.73 242.66,-219.73 235.66,-219.73"/>
</g>
<!-- ConfigService -->
<g id="node6" class="node">
<title>ConfigService</title>
<ellipse fill="#fdb462" stroke="black" cx="647" cy="-248" rx="66.63" ry="18"/>
<text text-anchor="middle" x="647" y="-243.8" font-family="Times,serif" font-size="14.00">ConfigService</text>
</g>
<!-- ConfigService&#45;&gt;CommonModule -->
<g id="edge5" class="edge">
<title>ConfigService&#45;&gt;CommonModule</title>
<path fill="none" stroke="black" d="M647,-229.98C647,-212.63 647,-189 647,-189 647,-189 395.94,-189 395.94,-189"/>
<polygon fill="black" stroke="black" points="395.94,-185.5 385.94,-189 395.94,-192.5 395.94,-185.5"/>
</g>
<!-- LoggerService -->
<g id="node7" class="node">
<title>LoggerService</title>
<ellipse fill="#fdb462" stroke="black" cx="494" cy="-248" rx="67.76" ry="18"/>
<text text-anchor="middle" x="494" y="-243.8" font-family="Times,serif" font-size="14.00">LoggerService</text>
</g>
<!-- LoggerService&#45;&gt;CommonModule -->
<g id="edge6" class="edge">
<title>LoggerService&#45;&gt;CommonModule</title>
<path fill="none" stroke="black" d="M425.99,-248C387.04,-248 345.83,-248 345.83,-248 345.83,-248 345.83,-208.22 345.83,-208.22"/>
<polygon fill="black" stroke="black" points="349.33,-208.22 345.83,-198.22 342.33,-208.22 349.33,-208.22"/>
</g>
<!-- EmployeeRepository -->
<g id="node8" class="node">
<title>EmployeeRepository</title>
<ellipse fill="#fdb462" stroke="black" cx="293" cy="-104" rx="92.64" ry="18"/>
<text text-anchor="middle" x="293" y="-99.8" font-family="Times,serif" font-size="14.00">EmployeeRepository</text>
</g>
<!-- EmployeeRepository&#45;&gt;EmployeeModule -->
<g id="edge7" class="edge">
<title>EmployeeRepository&#45;&gt;EmployeeModule</title>
<path fill="none" stroke="black" d="M228.29,-116.89C228.29,-116.89 228.29,-151.91 228.29,-151.91"/>
<polygon fill="black" stroke="black" points="224.79,-151.91 228.29,-161.91 231.79,-151.91 224.79,-151.91"/>
</g>
<!-- EmployeeService -->
<g id="node9" class="node">
<title>EmployeeService</title>
<ellipse fill="#fdb462" stroke="black" cx="103" cy="-104" rx="79.29" ry="18"/>
<text text-anchor="middle" x="103" y="-99.8" font-family="Times,serif" font-size="14.00">EmployeeService</text>
</g>
<!-- EmployeeService&#45;&gt;EmployeeModule -->
<g id="edge8" class="edge">
<title>EmployeeService&#45;&gt;EmployeeModule</title>
<path fill="none" stroke="black" d="M160.99,-116.55C160.99,-116.55 160.99,-151.74 160.99,-151.74"/>
<polygon fill="black" stroke="black" points="157.49,-151.74 160.99,-161.74 164.49,-151.74 157.49,-151.74"/>
</g>
</g>
</svg>
