<?xml version="1.0" standalone="no"?>
<!DOCTYPE svg PUBLIC "-//W3C//DTD SVG 20010904//EN"
 "http://www.w3.org/TR/2001/REC-SVG-20010904/DTD/svg10.dtd">
<svg version="1.0" xmlns="http://www.w3.org/2000/svg"
 width="700.000000pt" height="700.000000pt" viewBox="0 0 700.000000 700.000000"
 preserveAspectRatio="xMidYMid meet">
<metadata>
Created by potrace 1.14, written by Peter Selinger 2001-2017
</metadata>
<g transform="translate(0.000000,700.000000) scale(0.100000,-0.100000)"
fill="#000000" stroke="none">
<path d="M1038 6490 c-81 -15 -165 -104 -174 -183 -2 -18 -4 -120 -4 -227 l-1
-195 68 -63 c37 -35 67 -68 65 -74 -1 -5 2 -7 6 -4 12 7 122 -92 119 -107 -1
-7 4 -11 11 -9 16 3 83 -58 76 -70 -3 -5 0 -7 8 -6 7 2 12 -2 11 -9 -2 -7 4
-10 12 -7 9 4 15 0 15 -10 0 -9 6 -15 13 -13 6 1 11 -4 10 -10 -2 -7 3 -12 10
-10 6 1 11 -4 10 -10 -2 -7 1 -12 5 -10 14 4 101 -76 95 -87 -4 -6 -3 -8 2 -4
11 11 36 -12 28 -25 -3 -6 -1 -7 5 -3 14 8 113 -83 105 -97 -3 -6 -1 -7 5 -3
13 8 114 -83 106 -95 -3 -5 -2 -9 3 -8 23 4 35 -2 29 -17 -3 -8 -2 -12 4 -9
13 8 71 -45 63 -58 -3 -6 -1 -7 6 -3 6 4 17 1 24 -6 8 -7 55 -51 105 -97 78
-72 90 -87 79 -100 -10 -14 -10 -14 5 -3 14 11 20 10 37 -4 11 -10 18 -21 15
-26 -3 -5 0 -7 8 -6 7 2 12 -3 10 -10 -1 -6 2 -11 7 -10 17 5 243 -200 235
-213 -3 -5 1 -6 9 -4 7 3 24 -7 38 -22 14 -15 56 -54 92 -86 37 -33 64 -64 60
-70 -3 -5 -1 -7 5 -3 11 7 68 -43 64 -57 -1 -4 2 -6 6 -5 12 4 122 -94 116
-104 -3 -5 -2 -7 3 -6 16 5 65 -41 57 -53 -5 -8 -3 -9 5 -5 15 10 53 -23 44
-37 -3 -5 -2 -7 4 -4 5 3 25 -8 44 -26 19 -18 53 -49 76 -69 23 -20 39 -39 35
-42 -3 -3 0 -6 7 -6 11 0 107 -82 201 -170 21 -20 184 -167 212 -192 13 -11
22 -25 20 -30 -1 -5 2 -7 6 -4 5 3 18 -4 28 -15 11 -12 35 -34 55 -50 l36 -28
69 64 c38 35 72 61 76 58 5 -2 7 -1 6 4 -5 14 42 54 54 47 6 -4 8 -3 5 3 -4 6
28 42 70 79 42 38 81 74 88 81 7 7 15 9 19 6 3 -4 6 0 7 8 0 16 128 125 141
122 4 -2 7 3 5 10 -1 6 4 11 10 10 7 -2 12 0 10 5 -2 8 26 36 129 127 37 33
77 69 88 81 19 19 54 50 179 162 21 18 42 30 47 27 6 -3 7 1 4 9 -6 15 6 21
29 17 5 -1 6 2 3 7 -3 5 31 42 76 83 45 41 87 80 95 87 7 7 18 10 24 6 7 -4 9
-3 5 4 -8 13 44 63 57 55 6 -3 7 -2 4 4 -7 11 83 90 98 85 5 -2 7 0 3 4 -10
10 93 104 106 97 5 -3 6 -1 2 5 -8 13 48 55 59 44 5 -4 5 -2 2 4 -9 15 280
277 295 268 7 -5 8 -2 3 5 -7 13 32 48 48 43 5 -1 6 1 3 6 -3 5 18 29 46 53
28 24 59 52 69 63 9 10 22 15 28 12 7 -5 8 -1 4 10 -5 14 -3 16 11 11 9 -4 15
-3 12 2 -6 8 29 42 168 166 38 33 80 71 95 85 15 14 67 61 115 105 49 44 98
89 108 99 10 11 18 16 18 11 0 -5 8 2 18 15 10 15 17 44 17 70 0 25 4 51 9 59
6 9 5 12 -1 8 -5 -4 -10 6 -10 23 0 17 5 27 10 23 6 -4 7 -1 2 7 -4 7 -9 72
-10 144 -2 139 -12 176 -57 227 -35 39 -102 70 -156 70 -78 1 -112 -15 -194
-90 -31 -28 -59 -47 -64 -43 -5 4 -6 3 -2 -2 4 -5 -2 -18 -15 -28 -12 -11 -57
-52 -101 -91 -43 -40 -83 -71 -88 -69 -5 1 -7 -2 -4 -6 6 -10 -94 -98 -107
-94 -5 1 -6 -1 -3 -6 6 -10 -74 -78 -87 -74 -5 1 -6 -1 -3 -6 6 -11 -49 -63
-58 -55 -3 4 -6 -1 -6 -10 0 -10 -3 -17 -7 -17 -5 0 -31 -22 -59 -48 -28 -26
-83 -76 -123 -112 -40 -36 -90 -81 -110 -100 -113 -107 -206 -185 -215 -182
-6 2 -8 0 -4 -4 4 -4 -2 -15 -13 -25 -23 -20 -145 -131 -216 -196 -25 -24 -50
-40 -56 -36 -5 3 -7 2 -4 -4 5 -8 -63 -76 -167 -166 -12 -10 -42 -37 -67 -60
-25 -23 -87 -80 -138 -127 -52 -47 -108 -98 -126 -115 -17 -16 -67 -61 -110
-100 -98 -87 -100 -89 -165 -150 -29 -27 -49 -44 -45 -36 5 9 4 12 -3 7 -7 -4
-12 -13 -12 -19 0 -7 -11 -20 -24 -29 -22 -16 -25 -16 -55 9 -26 22 -29 28
-19 42 11 14 11 14 -3 4 -13 -10 -22 -6 -55 25 -22 20 -60 55 -84 77 -25 22
-44 43 -42 48 1 5 -1 6 -6 3 -12 -7 -54 38 -45 48 5 4 3 6 -3 4 -16 -5 -125
92 -117 105 3 5 2 7 -4 4 -5 -3 -20 4 -34 16 -13 12 -91 83 -173 157 -83 74
-162 146 -176 160 -15 14 -67 61 -116 105 -181 164 -219 200 -216 208 1 4 -2
6 -7 5 -5 -2 -50 35 -101 82 -51 47 -105 96 -121 109 -16 13 -26 28 -22 34 3
5 2 7 -4 4 -5 -3 -33 15 -60 41 -118 109 -249 227 -315 284 -26 23 -45 45 -42
50 3 5 1 7 -4 6 -9 -3 -63 44 -242 208 -30 27 -75 68 -100 91 -25 22 -65 59
-90 82 -49 45 -93 73 -125 78 -11 2 -29 5 -40 7 -11 2 -37 0 -57 -4z"/>
<path d="M859 5018 c-1 -560 -1 -547 34 -608 11 -19 51 -62 88 -95 37 -33 68
-66 68 -74 1 -8 4 -11 8 -8 7 8 99 -74 95 -85 -1 -5 2 -7 6 -5 5 1 51 -36 102
-83 51 -47 100 -92 110 -100 96 -84 168 -155 163 -163 -3 -6 -2 -7 3 -4 5 3
28 -11 51 -31 23 -20 69 -61 102 -91 33 -30 58 -58 55 -63 -3 -5 -1 -7 4 -6
15 5 174 -137 164 -146 -3 -3 0 -6 7 -6 7 0 18 -6 25 -12 7 -7 39 -35 70 -63
32 -27 75 -66 95 -85 53 -49 143 -132 246 -225 49 -44 96 -87 105 -95 8 -8 54
-49 100 -90 96 -85 101 -90 93 -104 -3 -5 -1 -6 5 -2 6 3 39 -20 73 -51 33
-32 68 -62 75 -66 8 -5 11 -14 8 -20 -4 -7 -4 -9 1 -5 9 8 102 -72 97 -84 -1
-5 2 -7 6 -5 5 1 41 -27 81 -63 103 -92 102 -90 95 -102 -4 -7 -2 -8 4 -4 6 4
36 -17 67 -46 31 -29 63 -57 71 -61 8 -4 14 -15 14 -22 0 -8 4 -14 9 -12 5 1
29 -17 53 -39 73 -69 120 -87 197 -80 94 9 100 10 96 14 -8 9 65 63 76 56 7
-4 9 -3 5 4 -7 12 -6 13 93 102 40 36 89 80 108 98 19 18 39 29 45 26 6 -4 8
-2 5 3 -8 13 17 36 28 25 5 -4 5 -2 2 4 -4 6 7 23 24 37 31 25 179 160 280
254 31 29 59 50 64 45 5 -4 5 -2 2 4 -6 11 52 61 66 56 5 -1 6 2 3 6 -3 5 7
20 23 33 25 21 157 140 231 209 124 115 120 112 138 98 15 -12 16 -11 3 5 -13
16 -13 20 -1 27 8 5 19 6 25 3 5 -4 7 -3 3 2 -11 11 12 36 25 28 6 -3 7 -1 3
6 -4 7 2 15 16 20 13 6 20 10 16 10 -11 1 98 101 110 101 7 0 12 5 12 10 0 15
71 75 86 74 7 -1 10 5 7 12 -3 8 -1 14 5 14 5 0 36 26 69 58 32 31 99 94 148
138 50 45 110 100 135 122 25 23 51 42 57 42 7 0 12 4 10 9 -3 14 87 91 101
86 7 -3 10 0 6 6 -8 14 33 52 48 43 6 -4 8 -3 5 3 -8 13 27 46 37 36 4 -5 6
-3 4 3 -2 6 15 28 37 48 126 117 188 171 196 169 5 -2 8 0 7 5 -1 4 30 38 69
77 40 38 70 71 68 74 -2 2 1 13 7 24 6 12 11 71 12 131 1 61 5 116 9 122 3 6
3 14 0 18 -10 10 -10 237 0 243 4 2 3 12 -1 21 -5 9 -8 79 -7 155 0 76 -2 140
-6 143 -3 2 -20 -9 -36 -24 -16 -15 -72 -65 -124 -112 -51 -47 -105 -96 -120
-110 -15 -14 -55 -50 -90 -80 -35 -30 -92 -83 -128 -117 -36 -34 -68 -63 -71
-63 -3 0 -43 -36 -90 -80 -46 -43 -87 -77 -92 -74 -5 3 -7 2 -6 -3 3 -10 -8
-20 -136 -136 -44 -40 -85 -78 -92 -85 -8 -7 -18 -11 -24 -7 -6 3 -7 -1 -4 -9
3 -9 2 -16 -3 -16 -5 0 -27 -17 -49 -37 -134 -125 -178 -162 -187 -156 -6 3
-7 1 -4 -4 6 -9 -46 -60 -155 -155 -46 -40 -182 -164 -199 -182 -10 -10 -23
-15 -30 -11 -7 5 -10 4 -6 -2 4 -6 -13 -27 -36 -48 -23 -21 -69 -64 -102 -94
-176 -162 -238 -216 -248 -213 -7 2 -9 1 -5 -3 4 -4 -16 -28 -45 -54 -28 -25
-79 -71 -112 -101 -33 -31 -75 -69 -94 -85 -18 -17 -48 -43 -66 -60 -128 -119
-164 -147 -178 -138 -6 3 -7 1 -3 -5 4 -7 1 -13 -6 -13 -7 -1 -26 -3 -43 -5
-76 -10 -108 -8 -100 6 3 5 0 7 -9 4 -23 -9 -56 14 -50 34 5 14 4 15 -5 2 -8
-12 -17 -8 -52 25 -23 22 -50 48 -60 57 -9 9 -14 19 -11 23 4 4 2 5 -4 3 -9
-3 -82 58 -198 166 -22 21 -40 42 -38 47 1 5 -2 8 -7 7 -13 -4 -152 122 -146
132 3 4 -1 7 -9 6 -7 0 -57 40 -112 89 -83 75 -144 131 -210 190 -16 15 -196
179 -208 190 -6 6 -58 53 -116 105 -58 51 -112 101 -120 110 -8 8 -33 30 -55
49 -36 30 -161 143 -235 211 -15 14 -62 57 -105 95 -42 39 -88 80 -100 91 -13
12 -21 25 -17 30 4 4 2 5 -3 1 -13 -7 -117 88 -107 98 4 3 2 5 -4 3 -17 -4
-175 142 -167 155 3 6 1 7 -5 3 -9 -5 -170 130 -232 194 -26 27 -179 160 -184
160 -3 0 -6 -118 -7 -262z"/>
<path d="M1555 5209 c-4 -6 -5 -12 -2 -15 2 -3 7 2 10 11 7 17 1 20 -8 4z"/>
<path d="M1710 5016 c0 -2 8 -10 18 -17 15 -13 16 -12 3 4 -13 16 -21 21 -21
13z"/>
<path d="M826 4998 c3 -5 10 -6 15 -3 13 9 11 12 -6 12 -8 0 -12 -4 -9 -9z"/>
<path d="M4930 4781 c0 -6 4 -13 10 -16 6 -3 7 1 4 9 -7 18 -14 21 -14 7z"/>
<path d="M1079 4173 c-13 -16 -12 -17 4 -4 9 7 17 15 17 17 0 8 -8 3 -21 -13z"/>
<path d="M3876 3793 c-6 -14 -5 -15 5 -6 7 7 10 15 7 18 -3 3 -9 -2 -12 -12z"/>
<path d="M3159 3753 c-13 -16 -12 -17 4 -4 9 7 17 15 17 17 0 8 -8 3 -21 -13z"/>
<path d="M3235 3689 c-4 -6 -5 -12 -2 -15 2 -3 7 2 10 11 7 17 1 20 -8 4z"/>
<path d="M860 3589 c0 -57 -1 -232 -1 -389 0 -157 3 -298 7 -315 13 -55 41
-99 96 -150 29 -27 52 -53 50 -58 -1 -5 2 -6 7 -3 5 3 23 -10 40 -29 17 -20
31 -33 31 -29 0 3 7 1 15 -6 8 -7 12 -16 9 -21 -3 -5 -1 -8 4 -7 14 4 162
-132 159 -146 -1 -6 4 -10 11 -8 7 1 19 -3 26 -10 7 -7 32 -30 55 -51 23 -21
39 -42 36 -47 -4 -6 1 -7 11 -3 14 5 16 3 11 -11 -4 -10 -3 -15 3 -11 6 4 52
-31 103 -77 101 -91 108 -99 101 -109 -2 -4 1 -11 7 -15 8 -4 9 -3 5 4 -10 17
9 15 24 -3 6 -8 8 -20 4 -26 -4 -8 -3 -9 5 -5 11 7 64 -35 191 -154 30 -28 81
-74 112 -102 32 -28 55 -55 51 -61 -3 -5 -1 -7 4 -4 14 9 135 -102 126 -116
-3 -6 -1 -7 5 -3 7 4 22 -3 35 -16 13 -13 63 -58 111 -101 47 -44 83 -84 79
-89 -4 -7 -1 -8 6 -3 7 4 20 -1 30 -11 10 -11 35 -34 55 -52 20 -18 34 -37 31
-42 -3 -5 0 -12 6 -16 8 -4 9 -3 5 4 -10 17 9 15 24 -3 6 -8 8 -20 4 -26 -4
-8 -3 -9 5 -5 15 10 43 -13 34 -27 -3 -5 -1 -7 5 -4 5 4 30 -11 54 -34 23 -22
62 -56 85 -76 23 -20 39 -41 36 -46 -3 -6 -1 -7 4 -4 6 4 25 -9 42 -28 17 -20
31 -32 31 -28 0 4 22 -15 50 -42 27 -26 46 -53 43 -58 -3 -6 -1 -7 4 -4 14 9
65 -32 57 -44 -3 -5 -1 -8 4 -7 5 2 40 -24 77 -57 37 -33 72 -63 78 -66 5 -4
7 -12 3 -18 -5 -7 -1 -8 10 -4 13 5 16 2 12 -9 -4 -9 -1 -15 6 -14 17 2 166
-136 159 -147 -3 -6 -1 -7 5 -3 10 6 49 -9 62 -25 7 -8 159 -5 154 3 -4 7 35
23 48 20 5 -1 7 4 5 11 -1 6 6 11 15 11 10 -1 16 2 13 6 -2 4 14 24 36 44 34
32 42 36 57 25 14 -11 15 -11 5 1 -18 19 -16 33 2 26 8 -3 14 -1 12 4 -3 13
83 91 94 84 5 -3 8 0 7 8 -2 7 3 12 9 11 7 -2 12 0 11 5 -5 14 46 63 60 57 7
-2 10 -1 7 5 -3 5 13 26 37 47 23 21 68 63 101 93 33 30 64 54 68 53 5 -2 9 4
9 13 0 10 5 14 16 10 8 -3 13 -2 10 3 -5 7 44 55 223 218 36 32 78 70 94 85
16 15 34 25 40 21 5 -3 7 -1 4 4 -4 6 12 27 36 48 23 20 66 59 94 87 31 29 57
46 64 42 7 -4 9 -3 6 3 -6 9 48 61 228 223 27 25 53 50 58 55 4 6 11 4 18 -5
8 -12 9 -10 4 8 -3 12 -3 22 2 22 4 0 31 21 58 47 28 25 69 63 92 84 23 22 47
39 54 39 7 0 9 3 6 6 -6 6 10 22 96 96 11 10 24 15 30 11 6 -3 7 -1 3 5 -4 7
9 26 30 44 21 18 43 39 51 46 7 7 13 10 13 5 0 -4 7 3 16 15 8 12 20 20 25 16
5 -3 8 0 7 8 -2 7 3 12 9 11 7 -2 12 1 10 5 -1 5 24 33 57 63 32 30 72 66 88
81 17 16 35 25 41 21 5 -3 7 -2 4 4 -7 12 141 149 160 147 7 -1 10 2 8 7 -3 4
18 29 47 56 28 26 64 59 79 73 58 54 72 95 73 215 1 61 5 115 9 121 3 6 3 14
0 18 -10 10 -10 136 -1 143 5 2 5 10 0 16 -11 15 -9 138 2 156 6 8 5 12 0 8
-5 -3 -9 48 -8 123 1 139 2 137 -55 85 -18 -16 -38 -29 -43 -27 -5 1 -7 -2 -3
-8 3 -5 3 -10 -2 -10 -4 0 -35 -26 -69 -58 -143 -135 -176 -162 -186 -156 -6
4 -8 3 -4 -4 8 -13 -94 -103 -107 -95 -6 3 -7 2 -4 -4 4 -6 -13 -27 -36 -48
-23 -20 -66 -60 -94 -87 -31 -29 -57 -46 -64 -42 -7 4 -9 3 -6 -3 6 -10 -82
-95 -270 -259 -32 -29 -85 -77 -118 -107 -32 -31 -63 -53 -67 -51 -4 3 -8 -1
-8 -8 0 -8 -17 -28 -37 -45 -21 -18 -63 -54 -92 -82 -30 -27 -59 -47 -63 -45
-5 3 -7 1 -6 -4 4 -15 -52 -63 -64 -56 -6 4 -8 2 -4 -4 3 -6 -37 -49 -91 -98
-54 -49 -103 -93 -109 -99 -10 -9 -131 -117 -174 -155 -31 -27 -182 -164 -221
-201 -104 -98 -184 -164 -196 -163 -7 1 -10 -3 -7 -8 4 -6 2 -13 -3 -17 -6 -3
-48 -41 -94 -83 -46 -42 -104 -95 -128 -117 -25 -22 -49 -37 -54 -34 -6 3 -7
1 -3 -5 8 -13 -41 -49 -80 -58 -97 -21 -164 -7 -224 49 -19 17 -54 49 -77 69
-23 20 -39 39 -35 42 3 3 0 6 -6 6 -17 0 -132 107 -124 115 4 4 2 5 -4 3 -9
-3 -166 132 -299 257 -24 22 -70 65 -104 95 -34 30 -85 77 -114 103 -28 27
-73 67 -99 89 -26 23 -44 46 -41 51 3 6 2 7 -4 4 -13 -8 -56 37 -46 48 5 4 2
5 -5 1 -15 -9 -139 101 -134 118 2 6 0 8 -4 4 -7 -8 -25 6 -184 152 -114 104
-177 161 -208 188 -13 11 -64 58 -115 104 -50 46 -121 109 -157 142 -36 32
-72 66 -80 75 -9 9 -49 45 -90 81 -41 36 -84 74 -96 85 -26 25 -170 155 -249
225 -33 29 -67 60 -76 69 -22 22 -90 83 -112 100 -16 13 -17 7 -17 -90z"/>
<path d="M4870 3241 c0 -6 4 -13 10 -16 6 -3 7 1 4 9 -7 18 -14 21 -14 7z"/>
<path d="M2839 2573 c-13 -16 -12 -17 4 -4 16 13 21 21 13 21 -2 0 -10 -8 -17
-17z"/>
<path d="M1990 1646 c0 -2 7 -7 16 -10 8 -3 12 -2 9 4 -6 10 -25 14 -25 6z"/>
<path d="M4473 1195 c0 -8 4 -12 9 -9 5 3 6 10 3 15 -9 13 -12 11 -12 -6z"/>
</g>
</svg>
