<?xml version="1.0" standalone="no"?>
<!DOCTYPE svg PUBLIC "-//W3C//DTD SVG 20010904//EN"
 "http://www.w3.org/TR/2001/REC-SVG-20010904/DTD/svg10.dtd">
<svg version="1.0" xmlns="http://www.w3.org/2000/svg"
 width="700.000000pt" height="700.000000pt" viewBox="0 0 700.000000 700.000000"
 preserveAspectRatio="xMidYMid meet">
<metadata>
Created by potrace 1.14, written by Peter Selinger 2001-2017
</metadata>
<g transform="translate(0.000000,700.000000) scale(0.100000,-0.100000)"
fill="#000000" stroke="none">
<path d="M1555 5889 c-27 -3 -54 -4 -60 -1 -5 3 -7 2 -3 -3 4 -4 -7 -17 -25
-29 -55 -36 -71 -85 -72 -213 0 -61 -4 -115 -7 -119 -4 -3 -4 -14 0 -23 4 -9
7 -34 7 -56 -1 -35 4 -45 46 -83 31 -29 46 -50 42 -60 -3 -12 -2 -13 4 -5 11
16 38 -1 28 -17 -5 -9 -4 -11 3 -6 6 4 25 -6 41 -21 16 -15 59 -54 95 -86 36
-32 64 -63 61 -68 -4 -5 0 -7 7 -4 7 3 30 -13 52 -35 21 -22 43 -40 48 -40 6
0 7 -7 4 -16 -3 -8 -2 -13 2 -10 11 7 18 1 110 -83 45 -41 79 -78 76 -83 -3
-5 -2 -8 3 -7 21 4 33 -2 33 -16 0 -8 6 -14 13 -12 6 1 11 -4 10 -10 -2 -7 1
-12 6 -10 8 2 106 -82 216 -185 27 -26 53 -48 58 -48 4 0 7 -7 7 -15 0 -8 4
-14 8 -12 8 2 79 -60 251 -219 90 -82 113 -103 173 -156 32 -28 55 -54 52 -59
-3 -5 -1 -8 4 -7 13 4 93 -63 86 -73 -3 -5 -2 -8 3 -7 14 4 53 -26 53 -41 0
-8 3 -12 6 -8 9 9 140 -111 136 -125 -1 -4 2 -7 7 -6 12 4 172 -142 166 -152
-3 -4 3 -7 13 -6 10 0 16 -5 14 -14 -2 -8 0 -12 3 -8 9 8 147 -111 140 -121
-2 -4 9 -7 25 -7 16 0 27 3 25 7 -5 7 25 36 32 31 3 -2 8 0 11 4 4 4 0 4 -8 0
-8 -4 -4 2 10 14 14 12 61 55 105 95 44 41 91 83 105 95 14 12 46 42 72 66 28
27 53 42 59 38 7 -4 9 -3 6 3 -8 13 47 66 58 56 4 -5 5 -3 1 4 -3 6 6 20 22
32 23 16 32 18 42 8 12 -10 12 -9 2 4 -10 13 -9 19 1 28 8 6 18 7 22 3 5 -4 6
-2 2 3 -3 6 15 29 40 50 25 22 60 55 79 73 20 20 38 30 45 26 7 -4 9 -3 6 3
-7 11 145 153 164 153 7 0 9 3 6 6 -4 4 3 16 16 26 12 11 60 54 106 96 109 99
127 113 135 104 4 -4 6 0 4 8 -2 8 3 14 10 12 8 -1 11 1 8 6 -8 13 40 55 54
47 6 -4 9 -1 8 7 -2 7 3 12 10 10 8 -1 11 2 8 7 -7 10 111 117 125 114 5 -2 8
3 6 10 -1 6 4 11 11 9 8 -1 11 2 7 7 -7 12 29 33 40 23 5 -4 5 -2 2 4 -8 14
17 37 28 26 5 -4 5 -2 2 4 -4 6 11 26 31 45 21 19 71 63 112 99 40 36 85 78
99 93 15 17 31 25 40 22 9 -3 12 -3 8 1 -8 8 61 84 76 84 4 0 5 -4 2 -10 -3
-5 -1 -10 5 -10 7 0 10 7 6 15 -6 16 49 72 65 68 5 -2 8 0 7 5 -2 4 22 30 52
59 86 81 113 102 123 96 6 -4 7 -1 2 8 -12 18 -13 249 -1 241 5 -3 6 1 1 8 -5
8 -9 34 -10 59 -2 60 -12 87 -42 122 -40 44 -85 61 -157 57 -35 -2 -62 -6 -60
-9 2 -4 -7 -14 -20 -22 -12 -9 -39 -30 -59 -49 -54 -51 -207 -191 -231 -211
-12 -10 -57 -51 -100 -90 -43 -40 -89 -81 -101 -92 -25 -22 -167 -152 -219
-200 -18 -16 -70 -64 -115 -105 -46 -41 -102 -92 -124 -112 -22 -20 -45 -35
-49 -32 -5 3 -7 1 -6 -4 3 -11 -24 -37 -233 -226 -170 -154 -216 -196 -257
-233 -25 -23 -50 -39 -55 -36 -6 3 -7 1 -4 -4 4 -6 -19 -33 -50 -60 -31 -26
-66 -57 -77 -69 -66 -66 -148 -134 -156 -129 -6 4 -8 11 -4 16 3 5 1 8 -3 7
-8 -3 -82 60 -192 162 -43 40 -229 210 -301 274 -36 32 -77 71 -91 85 -14 14
-42 39 -62 55 -20 17 -33 35 -30 40 4 6 3 8 -2 4 -11 -10 -166 132 -158 145 4
6 1 7 -6 2 -8 -4 -23 3 -40 21 -14 16 -47 47 -71 69 -25 22 -44 43 -43 47 2 5
-1 7 -6 5 -5 -1 -50 36 -101 83 -50 47 -96 87 -101 88 -5 2 -7 8 -3 13 3 5 1
8 -4 7 -5 -2 -50 34 -98 78 -49 45 -113 103 -143 130 -30 27 -82 74 -115 105
-117 109 -151 138 -158 139 -5 0 -8 8 -8 17 0 9 -3 14 -6 10 -3 -3 -21 8 -39
24 -54 50 -93 65 -150 58z"/>
<path d="M5251 5067 c2 -1 13 -9 24 -17 19 -14 19 -14 6 3 -7 9 -18 17 -24 17
-6 0 -8 -1 -6 -3z"/>
<path d="M5180 4920 c-9 -6 -10 -10 -3 -10 6 0 15 5 18 10 8 12 4 12 -15 0z"/>
<path d="M5559 4892 c-19 -21 -71 -68 -114 -107 -43 -38 -88 -80 -99 -93 -11
-12 -26 -20 -34 -17 -7 2 -11 1 -8 -3 8 -13 -72 -85 -85 -76 -8 4 -9 3 -5 -5
4 -6 -5 -21 -21 -35 -15 -13 -40 -34 -54 -47 -114 -106 -182 -164 -191 -161
-5 1 -7 -2 -4 -7 3 -5 -13 -25 -37 -44 -23 -19 -61 -52 -83 -74 -38 -35 -166
-152 -218 -198 -12 -11 -62 -56 -110 -100 -111 -100 -117 -107 -203 -183 -39
-34 -84 -75 -100 -90 -16 -15 -54 -49 -84 -76 -30 -27 -98 -89 -151 -138 -121
-111 -144 -129 -152 -120 -4 4 -6 2 -4 -4 4 -14 -121 -129 -138 -128 -7 1 -10
-4 -8 -11 3 -6 -12 -25 -33 -41 -47 -36 -117 -54 -158 -42 -16 5 -35 10 -42
12 -11 2 -143 116 -204 176 -14 14 -41 39 -60 55 -97 84 -117 104 -111 109 3
3 0 6 -7 6 -6 0 -22 10 -34 23 -13 12 -49 44 -80 71 -31 26 -54 53 -50 59 3 5
2 7 -3 4 -10 -6 -29 9 -163 131 -141 129 -151 139 -143 147 4 5 2 6 -4 2 -5
-3 -26 9 -45 26 -19 18 -73 66 -119 107 -119 107 -130 117 -180 163 -25 23
-85 78 -134 122 -50 44 -97 87 -106 95 -8 8 -51 47 -94 85 -43 39 -93 84 -110
100 -18 17 -75 68 -127 115 -51 47 -103 94 -115 105 -55 53 -127 109 -133 105
-3 -3 -6 -115 -6 -250 0 -135 -3 -250 -7 -255 -4 -6 -3 -17 3 -25 12 -20 11
-33 -2 -24 -8 5 -8 1 0 -13 6 -11 8 -23 5 -26 -10 -10 21 -92 46 -121 14 -16
24 -33 22 -38 -1 -5 2 -7 7 -4 13 8 112 -84 104 -97 -3 -6 -1 -7 6 -3 7 5 32
-12 64 -43 29 -27 67 -62 84 -77 18 -15 30 -31 26 -37 -3 -5 -1 -7 4 -4 13 8
36 -17 25 -28 -4 -5 -1 -5 5 -1 15 9 125 -93 116 -107 -3 -6 -1 -7 4 -4 13 8
115 -81 107 -94 -3 -5 1 -6 9 -3 8 3 23 -5 33 -18 11 -13 38 -40 61 -60 23
-20 39 -39 35 -42 -3 -3 0 -6 6 -6 19 0 72 -52 65 -63 -3 -6 -2 -7 4 -4 12 8
85 -57 75 -67 -4 -4 -2 -6 4 -4 15 4 97 -69 90 -80 -3 -6 0 -9 7 -8 18 2 127
-96 120 -107 -3 -6 -2 -7 3 -4 6 3 35 -17 65 -45 29 -27 74 -68 99 -90 25 -23
44 -45 43 -50 -2 -4 3 -7 10 -5 6 1 11 -5 9 -13 -2 -8 0 -12 4 -8 10 11 35
-12 27 -25 -3 -5 -1 -7 5 -3 14 8 114 -83 105 -97 -3 -6 -1 -7 6 -3 7 5 32
-12 64 -42 29 -27 71 -67 94 -87 23 -21 39 -43 36 -48 -3 -6 -2 -7 4 -4 11 7
99 -71 95 -85 -1 -5 2 -7 6 -4 12 7 44 -28 35 -39 -5 -4 -2 -5 5 -1 13 8 139
-101 134 -116 -1 -5 1 -7 6 -6 4 1 22 -6 41 -16 21 -11 56 -18 88 -18 61 -1
98 21 173 97 41 42 71 60 54 33 -4 -7 -3 -8 5 -4 6 4 9 12 6 17 -4 5 6 20 22
33 15 14 52 47 82 75 30 27 58 48 63 45 5 -3 7 -1 6 4 -4 13 84 92 94 86 5 -3
7 -1 6 5 -4 12 142 150 160 151 8 0 10 5 6 12 -5 8 -2 9 10 5 9 -4 15 -3 12 2
-3 4 11 23 32 42 20 18 61 55 89 82 47 44 55 48 70 36 16 -13 17 -12 5 3 -12
14 -7 22 35 60 26 24 72 67 103 96 30 28 61 50 68 47 7 -3 10 -1 7 5 -6 11 83
96 97 92 5 -1 7 2 4 7 -8 13 21 34 35 25 7 -4 9 -3 6 3 -9 14 82 95 96 86 5
-3 7 -1 3 5 -7 11 131 139 145 135 5 -2 8 3 6 10 -1 6 4 11 10 10 7 -2 12 1
10 5 -3 11 93 98 105 95 4 -2 8 2 8 9 0 16 72 78 83 71 6 -3 7 -2 4 4 -3 5 49
59 116 119 187 166 246 229 253 263 4 19 11 28 18 24 6 -4 5 0 -2 9 -9 11 -10
18 -2 23 6 3 7 13 2 23 -9 21 -9 43 1 60 5 6 4 12 -1 12 -10 0 -9 50 2 68 4 7
3 12 -2 12 -10 0 -9 50 2 68 4 7 4 12 -1 12 -4 0 -8 81 -7 180 0 99 -2 180 -5
179 -3 -1 -22 -17 -42 -37z"/>
<path d="M2395 4441 c-3 -5 -2 -12 3 -15 5 -3 9 1 9 9 0 17 -3 19 -12 6z"/>
<path d="M3879 3753 c-13 -16 -12 -17 4 -4 9 7 17 15 17 17 0 8 -8 3 -21 -13z"/>
<path d="M1394 3578 c1 -40 -3 -79 -8 -87 -7 -9 -7 -12 -1 -9 13 8 13 -371 1
-391 -6 -9 -5 -12 1 -8 5 3 9 -18 9 -53 -1 -33 3 -56 8 -52 5 3 6 -2 3 -12 -5
-11 -3 -15 5 -10 8 5 9 1 4 -12 -4 -10 -4 -16 -1 -13 9 10 105 -83 98 -94 -3
-6 -1 -7 5 -3 6 3 18 -4 26 -16 9 -12 16 -19 16 -15 0 4 11 -2 23 -15 13 -13
60 -55 103 -94 44 -40 94 -85 110 -100 17 -16 63 -58 102 -93 39 -35 70 -68
69 -74 -1 -6 5 -11 13 -12 21 0 81 -56 73 -68 -3 -6 -1 -7 4 -4 13 8 46 -27
36 -38 -5 -4 -2 -5 5 -1 8 5 30 -9 60 -37 26 -25 61 -59 79 -75 18 -16 29 -33
25 -37 -4 -3 -2 -5 4 -3 7 1 47 -28 89 -67 43 -38 91 -81 107 -94 22 -19 26
-27 16 -34 -10 -7 -9 -8 2 -4 9 3 33 -11 55 -30 98 -86 160 -148 157 -155 -1
-4 2 -7 6 -6 14 5 162 -134 155 -145 -3 -5 -1 -7 4 -4 14 9 95 -62 86 -76 -3
-5 -2 -7 3 -4 10 6 30 -10 164 -132 47 -43 104 -95 127 -116 24 -20 40 -41 37
-46 -3 -5 -2 -8 3 -7 15 5 83 -54 76 -65 -3 -6 -2 -7 4 -4 5 3 23 -6 40 -21
16 -16 35 -26 41 -24 7 2 12 -1 12 -8 0 -6 4 -9 8 -6 5 3 30 6 57 7 37 2 59
11 92 36 24 19 48 31 53 28 6 -4 7 2 3 12 -3 10 -3 15 1 11 4 -3 23 11 43 33
19 21 40 36 46 32 5 -3 7 -1 3 5 -10 16 15 27 26 11 8 -11 9 -10 4 4 -4 12 6
28 31 50 20 18 40 31 45 30 4 -2 7 1 5 5 -3 12 114 117 129 116 8 -1 11 2 8 7
-2 5 7 18 21 31 14 12 42 37 61 55 20 18 41 30 47 26 5 -3 7 -2 4 4 -8 13 58
77 72 69 7 -4 9 -1 5 8 -6 16 28 40 41 28 5 -4 5 -2 2 4 -7 13 118 131 134
126 6 -1 8 2 5 7 -4 5 5 18 19 29 22 18 144 128 281 254 28 27 54 45 58 40 4
-4 6 0 4 8 -2 8 3 14 10 13 6 -2 12 1 12 7 0 9 61 69 123 120 16 14 44 39 62
55 102 96 126 116 137 109 7 -4 8 -3 4 5 -7 11 51 68 66 64 4 -2 7 0 5 5 -4
12 86 91 97 85 6 -3 8 -3 4 2 -11 11 12 36 26 28 6 -3 8 -3 4 2 -10 10 31 47
44 39 4 -3 7 -1 6 5 -4 15 103 112 115 104 5 -3 7 -2 4 4 -7 11 43 59 56 55 5
-1 5 2 2 8 -4 6 1 14 12 16 10 3 27 26 38 52 17 40 20 71 21 203 0 86 4 163 7
172 3 9 3 18 -1 21 -4 2 -7 69 -6 149 l0 146 -25 -19 c-15 -10 -46 -38 -71
-62 -25 -23 -90 -83 -145 -133 -55 -49 -105 -94 -111 -100 -6 -5 -43 -39 -83
-75 -106 -94 -109 -97 -216 -195 -54 -49 -102 -89 -107 -88 -4 2 -8 -1 -8 -7
0 -13 -70 -76 -81 -73 -5 2 -8 0 -7 -5 5 -12 -88 -92 -97 -84 -5 4 -5 2 -1 -5
3 -6 -4 -19 -16 -28 -13 -8 -44 -36 -70 -61 -30 -29 -52 -43 -60 -38 -7 4 -10
3 -5 -1 9 -11 -62 -85 -81 -85 -7 0 -10 -4 -7 -10 3 -5 3 -10 -2 -10 -4 0 -31
-22 -59 -48 -126 -117 -196 -177 -206 -174 -5 1 -7 -2 -4 -7 3 -5 -13 -24 -37
-44 -23 -19 -60 -52 -83 -73 -22 -22 -75 -70 -118 -109 -43 -38 -94 -84 -114
-103 -119 -111 -194 -172 -204 -166 -6 4 -8 3 -5 -3 4 -6 -5 -15 -19 -22 -30
-13 -104 -15 -104 -1 0 5 -6 7 -12 5 -17 -6 -50 17 -136 94 -39 35 -69 68 -65
74 3 6 1 7 -4 4 -6 -4 -23 6 -39 21 -16 15 -60 54 -98 87 -38 33 -81 71 -95
85 -14 14 -69 63 -120 110 -52 47 -106 96 -120 109 -14 13 -39 34 -54 47 -16
14 -25 29 -21 35 4 8 3 9 -5 5 -6 -4 -17 -1 -25 6 -7 7 -56 51 -107 98 -51 47
-117 108 -145 135 -29 28 -56 52 -61 54 -4 2 -48 40 -97 85 -48 44 -101 92
-117 105 -16 13 -26 28 -23 33 3 4 1 7 -4 6 -15 -5 -123 93 -115 105 3 5 2 7
-4 4 -6 -4 -36 18 -69 48 -32 30 -62 55 -66 55 -5 0 -8 8 -8 17 0 9 -3 14 -6
10 -6 -5 -25 11 -109 88 -17 17 -70 64 -116 105 -46 41 -106 95 -134 120 -27
25 -60 53 -71 63 l-21 18 1 -73z"/>
<path d="M5055 3640 c-3 -5 -1 -10 4 -10 6 0 11 5 11 10 0 6 -2 10 -4 10 -3 0
-8 -4 -11 -10z"/>
<path d="M4750 3399 c0 -5 5 -7 10 -4 6 3 10 8 10 11 0 2 -4 4 -10 4 -5 0 -10
-5 -10 -11z"/>
<path d="M3850 2623 c0 -6 8 -17 18 -24 16 -13 16 -13 2 6 -8 11 -16 22 -17
24 -2 2 -3 0 -3 -6z"/>
<path d="M4876 2282 c-3 -5 1 -9 9 -9 8 0 12 4 9 9 -3 4 -7 8 -9 8 -2 0 -6 -4
-9 -8z"/>
<path d="M2350 2056 c0 -2 8 -10 18 -17 15 -13 16 -12 3 4 -13 16 -21 21 -21
13z"/>
<path d="M4330 1785 c0 -5 5 -17 10 -25 5 -8 10 -10 10 -5 0 6 -5 17 -10 25
-5 8 -10 11 -10 5z"/>
</g>
</svg>
